<?xml version="1.0" encoding="UTF-8" standalone="no"?>
<svg
   xmlns:dc="http://purl.org/dc/elements/1.1/"
   xmlns:cc="http://creativecommons.org/ns#"
   xmlns:rdf="http://www.w3.org/1999/02/22-rdf-syntax-ns#"
   xmlns:svg="http://www.w3.org/2000/svg"
   xmlns="http://www.w3.org/2000/svg"
   width="180"
   height="31.072001"
   viewBox="0 0 47.624999 8.2211337"
   version="1.1"
   id="svg10054">
  <defs
     id="defs10048">
    <clipPath
       id="clip88">
      <rect
         x="0"
         y="0"
         width="1920"
         height="3390"
         id="rect5739" />
    </clipPath>
    <clipPath
       id="clip89">
      <rect
         x="0"
         y="0"
         width="1920"
         height="354"
         id="rect5523" />
    </clipPath>
    <mask
       id="mask78">
      <g
         id="g5520"
         transform="scale(0.26458333)"
         style="filter:url(#alpha)">
        <rect
           x="0"
           y="0"
           width="1920"
           height="3390"
           style="fill:#000000;fill-opacity:0.30980003;stroke:none"
           id="rect5518" />
      </g>
    </mask>
    <filter
       id="alpha"
       filterUnits="objectBoundingBox"
       x="0"
       y="0"
       width="1"
       height="1">
      <feColorMatrix
         type="matrix"
         in="SourceGraphic"
         values="0 0 0 0 1 0 0 0 0 1 0 0 0 0 1 0 0 0 1 0"
         id="feColorMatrix1861" />
    </filter>
    <clipPath
       id="clipPath10020">
      <rect
         x="0"
         y="0"
         width="1920"
         height="354"
         id="rect10018" />
    </clipPath>
    <mask
       id="mask77">
      <g
         id="g5515"
         transform="scale(0.26458333)"
         style="filter:url(#alpha)">
        <rect
           x="0"
           y="0"
           width="1920"
           height="3390"
           style="fill:#000000;fill-opacity:0.70200004;stroke:none"
           id="rect5513" />
      </g>
    </mask>
    <filter
       id="filter10027"
       filterUnits="objectBoundingBox"
       x="0"
       y="0"
       width="1"
       height="1">
      <feColorMatrix
         type="matrix"
         in="SourceGraphic"
         values="0 0 0 0 1 0 0 0 0 1 0 0 0 0 1 0 0 0 1 0"
         id="feColorMatrix10025" />
    </filter>
    <clipPath
       id="clipPath10031">
      <rect
         x="0"
         y="0"
         width="1920"
         height="3390"
         id="rect10029" />
    </clipPath>
    <mask
       id="mask10037">
      <g
         style="filter:url(#alpha)"
         id="g10035">
        <rect
           x="0"
           y="0"
           width="1920"
           height="3390"
           style="fill:#000000;fill-opacity:0.30980003;stroke:none"
           id="rect10033" />
      </g>
    </mask>
    <filter
       id="filter10041"
       filterUnits="objectBoundingBox"
       x="0"
       y="0"
       width="1"
       height="1">
      <feColorMatrix
         type="matrix"
         in="SourceGraphic"
         values="0 0 0 0 1 0 0 0 0 1 0 0 0 0 1 0 0 0 1 0"
         id="feColorMatrix10039" />
    </filter>
    <clipPath
       id="clipPath10045">
      <rect
         x="0"
         y="0"
         width="1920"
         height="354"
         id="rect10043" />
    </clipPath>
  </defs>
  <metadata
     id="metadata10051">
    <rdf:RDF>
      <cc:Work
         rdf:about="">
        <dc:format>image/svg+xml</dc:format>
        <dc:type
           rdf:resource="http://purl.org/dc/dcmitype/StillImage" />
        <dc:title></dc:title>
      </cc:Work>
    </rdf:RDF>
  </metadata>
  <g
     transform="matrix(1.004402,0,0,1.004402,-81.64971,-145.04313)"
     id="layer1">
    <g
       transform="matrix(0.09333912,0,0,0.09333912,81.291864,60.39644)"
       clip-path="url(#clip88)"
       id="use8847">
      <g
         id="g11190"
         clip-path="url(#clip89)"
         transform="matrix(0.26458333,0,0,0.26458333,0,896)">
        <path
           style="fill:#e1e6eb;fill-opacity:1;fill-rule:nonzero;stroke:none"
           d="m 97.285156,49.40625 -0.945312,0.273438 c -0.507813,0.144531 -13.40625,3.929687 -24.753906,13.34375 l -0.816407,0.675781 0.738281,0.765625 c 3.035157,3.152344 6.5,5.90625 10.554688,8.363281 l -0.265625,0.4375 0.265625,-0.4375 c 3.96875,2.398437 8.496094,4.507813 13.726562,6.40625 l 1.101563,0.402344 0.207031,-1.152344 c 1.21875,-6.8125 1.601563,-12.417969 1.601563,-16.78125 0,-7.308594 -1.078125,-11.140625 -1.136719,-11.347656 z m 0,0"
           id="path10978" />
        <path
           style="fill:#e1e6eb;fill-opacity:1;fill-rule:nonzero;stroke:none"
           d="m 169.38672,44.324219 -0.043,0.382812 c -0.0195,0.121094 -0.19531,1.648438 -0.19531,4.007813 0,3.164062 0.32031,7.835937 1.77343,12.652344 l 0.11329,0.394531 0.38671,-0.152344 c 2.42579,-0.925781 4.73438,-2.1875 7.01954,-3.839844 2.23046,-1.617187 4.4375,-3.609375 6.69531,-6.042969 l 0.30859,-0.332031 -0.375,-0.246093 c -9.2539,-6.019532 -15.125,-6.753907 -15.30469,-6.78125 z m 0,0"
           id="path10980" />
        <path
           style="fill:#e1e6eb;fill-opacity:1;fill-rule:nonzero;stroke:none"
           d="m 241.80469,86.042969 -0.92578,0.277343 c -0.4961,0.148438 -13.20704,4.027344 -24.3125,13.449219 l -0.79688,0.675779 0.73438,0.7461 c 3.03125,3.07812 6.48437,5.76562 10.51953,8.14453 l -0.26172,0.44531 0.26172,-0.44531 c 3.9414,2.32812 8.4414,4.36328 13.6289,6.18359 l 1.08594,0.38281 0.1875,-1.13281 c 1.0625,-6.33203 1.41406,-11.60156 1.41406,-15.789061 0,-7.75 -1.1914,-11.800781 -1.2539,-12.011719 z m 0,0"
           id="path10982" />
        <path
           style="fill:#e1e6eb;fill-opacity:1;fill-rule:nonzero;stroke:none"
           d="m 277.67578,131.67187 -0.89062,0.37891 c -0.48047,0.19922 -12.69532,5.42578 -22.72266,15.98828 l -0.71875,0.75781 0.80469,0.66016 c 3.34765,2.73438 7.07031,5.03125 11.33593,6.96484 4.17188,1.89063 8.86329,3.42969 14.21875,4.6836 l 1.11719,0.26172 0.0703,-1.14844 c 0.12891,-2.25 0.1875,-4.36328 0.1875,-6.33984 0,-14.02344 -2.91015,-21.03907 -3.02343,-21.3125 z m 0,0"
           id="path10984" />
        <path
           style="fill:#e1e6eb;fill-opacity:1;fill-rule:nonzero;stroke:none"
           d="m 101.12109,161.81641 -0.0703,0.004 h -0.008 l -0.94141,0.0117 0.0156,0.94141 c 0,0.51172 0.2539,13.57422 6.18359,26.60937 l 0.41797,0.92578 0.89453,-0.49218 c 3.72656,-2.03516 7.19141,-4.57813 10.52735,-7.75391 3.26171,-3.10156 6.39453,-6.8125 9.51562,-11.23047 l 0.64453,-0.91406 -1.01172,-0.48047 c -15.625,-7.41016 -25.16406,-7.62109 -26.16797,-7.62109"
           id="path10986" />
        <path
           style="fill:#e1e6eb;fill-opacity:1;fill-rule:nonzero;stroke:none"
           d="m 168.22656,84.507812 -2.24219,0.996094 c -0.99609,0.441406 -25.36328,11.433594 -45.20312,33.125004 l -1.79297,1.95703 2.08203,1.63672 c 6.83203,5.38281 14.41797,9.86328 23.06641,13.58203 l -0.19922,0.47265 0.19922,-0.47265 c 8.46484,3.63672 17.94922,6.54297 28.7539,8.84375 l 2.85938,0.60937 0.125,-2.92578 c 0.13281,-3.24219 0.19531,-6.33594 0.19531,-9.28906 0,-30.51563 -6.57031,-45.664064 -6.84765,-46.296876 z m 0,0"
           id="path10988" />
        <path
           style="fill:#e1e6eb;fill-opacity:1;fill-rule:nonzero;stroke:none"
           d="m 329.97656,84.839844 -0.14062,0.01953 c -0.21094,0.02344 -6.03516,0.820313 -11.51563,4.128906 l -0.13281,0.08203 0.0859,0.125 c 1.09765,1.550782 2.40625,2.957032 3.98828,4.273438 l -0.33203,0.394531 0.33203,-0.394531 c 1.54687,1.285156 3.35547,2.488281 5.49219,3.648438 l 0.15234,0.08203 0.0547,-0.160157 c 1.8125,-5.339843 2.08984,-9.042968 2.08984,-10.832031 0,-0.777343 -0.0508,-1.191406 -0.0547,-1.226562 z m 0,0"
           id="path10990" />
        <path
           style="fill:#e1e6eb;fill-opacity:1;fill-rule:nonzero;stroke:none"
           d="m 379.04297,130.29297 -0.0117,0.14453 c -0.0117,0.0703 -0.0977,0.94141 -0.0937,2.3125 -0.004,2.30078 0.24219,6.02344 1.46484,9.83984 l 0.0469,0.14844 0.14453,-0.0586 c 1.75781,-0.71094 3.42578,-1.66016 5.07422,-2.89453 1.60547,-1.21094 3.19531,-2.69922 4.82031,-4.51172 l 0.10938,-0.125 -0.14454,-0.0898 c -6.85156,-4.28515 -11.15625,-4.74218 -11.26562,-4.7539 z m 0,0"
           id="path10992" />
        <path
           style="fill:#e1e6eb;fill-opacity:1;fill-rule:nonzero;stroke:none"
           d="m 427.07812,75.75 -0.0469,0.04687 c -0.12891,0.136719 -3.63672,3.972656 -5.49219,9.328125 l -0.0273,0.07031 0.0742,0.01953 c 1.61718,0.429687 3.30468,0.648437 5.125,0.648437 1.77734,0 3.6914,-0.210937 5.80078,-0.628906 l 0.082,-0.01563 -0.0273,-0.07422 c -2.57032,-6.679687 -5.3711,-9.289062 -5.4375,-9.347656 z m 0,0"
           id="path10994" />
        <path
           style="fill:#e1e6eb;fill-opacity:1;fill-rule:nonzero;stroke:none"
           d="m 265.76562,40.351562 -0.17187,0.535157 c -0.0977,0.292969 -2.18359,6.898437 -2.18359,15.273437 0,1.546875 0.0742,3.15625 0.24218,4.792969 l 0.0625,0.605469 0.59375,-0.105469 c 3.08594,-0.546875 6.10938,-1.511719 9.1875,-2.941406 3.01172,-1.40625 6.07813,-3.257813 9.30078,-5.617188 l 0.54297,-0.398437 -0.48047,-0.464844 C 273.30469,42.808594 266.51953,40.589844 266.30078,40.519531 Z m 0,0"
           id="path10996" />
        <path
           style="fill:#e1e6eb;fill-opacity:1;fill-rule:nonzero;stroke:none"
           d="m 17.027344,15.355469 -0.820313,0.882812 C 15.789062,16.6875 5.371094,28.0625 -0.171875,44.054688 l -0.429687,1.226562 1.257812,0.332031 c 4.851562,1.292969 9.898438,1.941407 15.335938,1.941407 5.324218,0 11.023437,-0.621094 17.289062,-1.863282 L 34.6875,45.414062 34.175781,44.074219 C 26.550781,24.257812 18.210938,16.453125 17.910156,16.171875 Z m 0,0"
           id="path10998" />
        <path
           style="fill:#e1e6eb;fill-opacity:1;fill-rule:nonzero;stroke:none"
           d="m 36.539062,245.85156 -0.04297,0.37891 c -0.01953,0.125 -0.195313,1.64844 -0.195313,4.01172 0,3.16406 0.320313,7.83593 1.769531,12.64843 l 0.117188,0.39454 0.386719,-0.14844 c 2.421875,-0.92969 4.734375,-2.1875 7.015625,-3.83985 2.234375,-1.61718 4.441406,-3.61328 6.699218,-6.04687 l 0.308594,-0.32813 -0.378906,-0.25 c -9.25,-6.01953 -15.125,-6.7539 -15.300781,-6.77734 z m 0,0"
           id="path11000" />
        <path
           style="fill:#e1e6eb;fill-opacity:1;fill-rule:nonzero;stroke:none"
           d="m 108.95703,287.57031 -0.92578,0.27735 c -0.5,0.14453 -13.207031,4.02343 -24.316406,13.44921 l -0.792969,0.67188 0.734375,0.74609 c 3.03125,3.07813 6.484375,5.76563 10.515625,8.14453 l -0.261719,0.44532 0.261719,-0.44532 c 3.945313,2.33204 8.445315,4.36329 13.632815,6.1875 l 1.08594,0.38282 0.1875,-1.13672 c 1.0625,-6.33203 1.41015,-11.59766 1.41015,-15.78516 0,-7.75 -1.1875,-11.80078 -1.25,-12.01172 z m 0,0"
           id="path11002" />
        <path
           style="fill:#e1e6eb;fill-opacity:1;fill-rule:nonzero;stroke:none"
           d="m 35.378906,286.03125 -2.242187,1 c -1,0.4375 -25.367188,11.42969 -45.203125,33.12109 l -1.792969,1.95703 2.082031,1.63672 c 6.832032,5.38282 14.414063,9.86719 23.066406,13.58594 l -0.203124,0.47266 0.203124,-0.47266 c 8.460938,3.63672 17.949219,6.54297 28.753907,8.84375 l 2.859375,0.60938 0.125,-2.92969 c 0.132812,-3.23828 0.195312,-6.33594 0.195312,-9.28906 0,-30.51563 -6.570312,-45.66407 -6.847656,-46.29688 z m 0,0"
           id="path11004" />
        <path
           style="fill:#e1e6eb;fill-opacity:1;fill-rule:nonzero;stroke:none"
           d="m 197.12891,286.36328 -0.14454,0.0195 c -0.20703,0.0234 -6.03125,0.82031 -11.51562,4.13281 l -0.13281,0.082 0.0898,0.125 c 1.09766,1.54687 2.40625,2.95312 3.98828,4.26953 l -0.33203,0.39453 0.33203,-0.39453 c 1.54297,1.28515 3.35547,2.49218 5.49219,3.65234 l 0.15234,0.0781 0.0547,-0.16016 c 1.80859,-5.33984 2.08984,-9.04297 2.08984,-10.83203 0,-0.77344 -0.0508,-1.19141 -0.0547,-1.22266 z m 0,0"
           id="path11006" />
        <path
           style="fill:#e1e6eb;fill-opacity:1;fill-rule:nonzero;stroke:none"
           d="m 246.19531,331.81641 -0.0156,0.14453 c -0.008,0.0742 -0.0937,0.9414 -0.0898,2.3125 -0.004,2.30078 0.23828,6.02343 1.46485,9.84375 l 0.0469,0.14843 0.14453,-0.0625 c 1.75782,-0.70703 3.42188,-1.65625 5.07422,-2.89453 1.60547,-1.20703 3.19531,-2.69531 4.81641,-4.50781 l 0.11328,-0.125 -0.14844,-0.0898 c -6.84765,-4.28907 -11.15234,-4.74219 -11.26172,-4.75391 z m 0,0"
           id="path11008" />
        <path
           style="fill:#e1e6eb;fill-opacity:1;fill-rule:nonzero;stroke:none"
           d="m 294.23047,277.27344 -0.0469,0.0508 c -0.1289,0.13281 -3.63672,3.96875 -5.49218,9.32422 l -0.0274,0.0742 0.0742,0.0195 c 1.61719,0.42968 3.30078,0.64453 5.12109,0.64453 1.78125,0 3.69141,-0.21094 5.80469,-0.625 l 0.0781,-0.0156 -0.0274,-0.0781 c -2.5664,-6.67969 -5.36718,-9.28906 -5.4375,-9.34766 z m 0,0"
           id="path11010" />
        <path
           style="fill:#e1e6eb;fill-opacity:1;fill-rule:nonzero;stroke:none"
           d="m 132.91797,241.875 -0.17578,0.53516 c -0.0937,0.29296 -2.17969,6.90234 -2.17969,15.27343 0,1.55078 0.0742,3.15625 0.24219,4.79688 l 0.0586,0.60156 0.59766,-0.10547 c 3.08593,-0.54687 6.10937,-1.50781 9.1875,-2.9414 3.01172,-1.40235 6.07812,-3.25391 9.30078,-5.61719 l 0.54297,-0.39453 -0.48438,-0.46485 c -9.55469,-9.22656 -16.33984,-11.44531 -16.55469,-11.51562 z m 0,0"
           id="path11012" />
        <path
           style="fill:#e1e6eb;fill-opacity:1;fill-rule:nonzero;stroke:none"
           d="m 827.95703,49.40625 -0.94531,0.273438 c -0.50781,0.144531 -13.41016,3.929687 -24.75391,13.34375 l -0.8164,0.675781 0.73437,0.765625 c 3.03516,3.152344 6.50391,5.90625 10.55469,8.363281 l -0.26563,0.4375 0.26563,-0.4375 c 3.96875,2.398437 8.5,4.507813 13.73047,6.40625 l 1.10156,0.402344 0.20703,-1.152344 c 1.21484,-6.8125 1.59766,-12.417969 1.59766,-16.78125 0,-7.308594 -1.07422,-11.140625 -1.13672,-11.347656 z m 0,0"
           id="path11014" />
        <path
           style="fill:#e1e6eb;fill-opacity:1;fill-rule:nonzero;stroke:none"
           d="m 900.05859,44.324219 -0.0469,0.382812 c -0.0156,0.121094 -0.19141,1.648438 -0.19141,4.007813 0,3.164062 0.32031,7.835937 1.76953,12.652344 l 0.11719,0.394531 0.38672,-0.152344 c 2.42187,-0.925781 4.73047,-2.1875 7.01562,-3.839844 2.23047,-1.617187 4.44141,-3.609375 6.69922,-6.042969 l 0.3086,-0.332031 -0.37891,-0.246093 c -9.25,-6.019532 -15.125,-6.753907 -15.30469,-6.78125 z m 0,0"
           id="path11016" />
        <path
           style="fill:#e1e6eb;fill-opacity:1;fill-rule:nonzero;stroke:none"
           d="m 972.47656,86.042969 -0.92578,0.277343 c -0.5,0.148438 -13.20703,4.027344 -24.31641,13.449219 l -0.79296,0.675779 0.73046,0.7461 c 3.03125,3.07812 6.48829,5.76562 10.51954,8.14453 l -0.26172,0.44531 0.26172,-0.44531 c 3.9414,2.32812 8.4414,4.36328 13.63281,6.18359 l 1.08594,0.38281 0.1875,-1.13281 c 1.05859,-6.33203 1.41015,-11.60156 1.41015,-15.789061 0,-7.75 -1.1875,-11.800781 -1.2539,-12.011719 z m 0,0"
           id="path11018" />
        <path
           style="fill:#e1e6eb;fill-opacity:1;fill-rule:nonzero;stroke:none"
           d="m 1008.3477,131.67187 -0.8907,0.37891 c -0.4804,0.19922 -12.69919,5.42578 -22.72653,15.98828 l -0.71875,0.75781 0.80469,0.66016 c 3.35156,2.73438 7.07421,5.03125 11.33984,6.96484 4.17185,1.89063 8.85935,3.42969 14.21485,4.6836 l 1.1211,0.26172 0.066,-1.14844 c 0.1328,-2.25 0.1914,-4.36328 0.1914,-6.33984 0,-14.02344 -2.9102,-21.03907 -3.0234,-21.3125 z m 0,0"
           id="path11020" />
        <path
           style="fill:#e1e6eb;fill-opacity:1;fill-rule:nonzero;stroke:none"
           d="m 831.79297,161.81641 -0.0742,0.004 h -0.004 l -0.9414,0.0117 0.0117,0.94141 c 0.004,0.51172 0.25781,13.57422 6.18359,26.60937 l 0.42187,0.92578 0.89063,-0.49218 c 3.73047,-2.03516 7.19531,-4.57813 10.52734,-7.75391 3.26172,-3.10156 6.39844,-6.8125 9.51563,-11.23047 l 0.64844,-0.91406 -1.01563,-0.48047 c -15.62109,-7.41016 -25.16016,-7.62109 -26.16406,-7.62109"
           id="path11022" />
        <path
           style="fill:#e1e6eb;fill-opacity:1;fill-rule:nonzero;stroke:none"
           d="m 898.89844,84.507812 -2.24219,0.996094 c -1,0.441406 -25.36719,11.433594 -45.20313,33.125004 l -1.79296,1.95703 2.07812,1.63672 c 6.83594,5.38281 14.41797,9.86328 23.07031,13.58203 l -0.20312,0.47265 0.20312,-0.47265 c 8.46094,3.63672 17.94922,6.54297 28.75391,8.84375 l 2.85937,0.60937 0.1211,-2.92578 c 0.13672,-3.24219 0.19922,-6.33594 0.19922,-9.28906 0,-30.51563 -6.57032,-45.664064 -6.85157,-46.296876 z m 0,0"
           id="path11024" />
        <path
           style="fill:#e1e6eb;fill-opacity:1;fill-rule:nonzero;stroke:none"
           d="m 1060.6445,84.839844 -0.1406,0.01953 c -0.207,0.02344 -6.0351,0.820313 -11.5156,4.128906 l -0.1328,0.08203 0.09,0.125 c 1.0977,1.550782 2.4024,2.957032 3.9844,4.273438 l -0.3281,0.394531 0.3281,-0.394531 c 1.5469,1.285156 3.3594,2.488281 5.4922,3.648438 l 0.1562,0.08203 0.055,-0.160157 c 1.8086,-5.339843 2.0899,-9.042968 2.0899,-10.832031 0,-0.777343 -0.055,-1.191406 -0.059,-1.226562 z m 0,0"
           id="path11026" />
        <path
           style="fill:#e1e6eb;fill-opacity:1;fill-rule:nonzero;stroke:none"
           d="m 1109.7148,130.29297 -0.016,0.14453 c -0.01,0.0703 -0.094,0.94141 -0.094,2.3125 0,2.30078 0.2422,6.02344 1.4687,9.83984 l 0.047,0.14844 0.1445,-0.0586 c 1.7578,-0.71094 3.4219,-1.66016 5.0703,-2.89453 1.6055,-1.21094 3.1954,-2.69922 4.8204,-4.51172 l 0.1093,-0.125 -0.1445,-0.0898 c -6.8516,-4.28515 -11.1563,-4.74218 -11.2617,-4.7539 z m 0,0"
           id="path11028" />
        <path
           style="fill:#e1e6eb;fill-opacity:1;fill-rule:nonzero;stroke:none"
           d="m 1157.75,75.75 -0.047,0.04687 c -0.1289,0.136719 -3.6367,3.972656 -5.4922,9.328125 l -0.027,0.07031 0.074,0.01953 c 1.6172,0.429687 3.3008,0.648437 5.1211,0.648437 1.7774,0 3.6914,-0.210937 5.8047,-0.628906 l 0.078,-0.01563 -0.027,-0.07422 c -2.5703,-6.679687 -5.3711,-9.289062 -5.4375,-9.347656 z m 0,0"
           id="path11030" />
        <path
           style="fill:#e1e6eb;fill-opacity:1;fill-rule:nonzero;stroke:none"
           d="m 996.43359,40.351562 -0.17187,0.535157 c -0.0937,0.292969 -2.17969,6.898437 -2.17969,15.273437 0,1.546875 0.0742,3.15625 0.23828,4.792969 l 0.0625,0.605469 0.59766,-0.105469 c 3.08203,-0.546875 6.10933,-1.511719 9.18753,-2.941406 3.0078,-1.40625 6.0742,-3.257813 9.3007,-5.617188 l 0.543,-0.398437 -0.4844,-0.464844 c -9.5546,-9.222656 -16.3398,-11.441406 -16.55464,-11.511719 z m 0,0"
           id="path11032" />
        <path
           style="fill:#e1e6eb;fill-opacity:1;fill-rule:nonzero;stroke:none"
           d="m 747.69531,15.355469 -0.8164,0.882812 C 746.46094,16.6875 736.04297,28.0625 730.49609,44.054688 l -0.42578,1.226562 1.25391,0.332031 c 4.85547,1.292969 9.89844,1.941407 15.33984,1.941407 5.32031,0 11.02344,-0.621094 17.28906,-1.863282 l 1.40625,-0.277344 -0.51562,-1.339843 c -7.625,-19.816407 -15.96094,-27.621094 -16.26172,-27.902344 z m 0,0"
           id="path11034" />
        <path
           style="fill:#e1e6eb;fill-opacity:1;fill-rule:nonzero;stroke:none"
           d="m 695.10547,250.93359 -0.94531,0.27344 c -0.50782,0.14063 -13.40625,3.92969 -24.75391,13.33984 l -0.81641,0.67969 0.73828,0.76563 c 3.03516,3.14843 6.5,5.90625 10.55469,8.35937 l -0.26562,0.44141 0.26562,-0.44141 c 3.96875,2.39844 8.4961,4.50781 13.72656,6.41016 l 1.10157,0.39844 0.20703,-1.15235 c 1.21875,-6.8125 1.60156,-12.41406 1.60156,-16.78125 0,-7.30859 -1.07812,-11.14062 -1.13672,-11.34765 z m 0,0"
           id="path11036" />
        <path
           style="fill:#e1e6eb;fill-opacity:1;fill-rule:nonzero;stroke:none"
           d="m 767.20703,245.85156 -0.043,0.37891 c -0.0195,0.125 -0.19531,1.64844 -0.19531,4.01172 0,3.16406 0.32031,7.83593 1.77344,12.64843 l 0.11328,0.39454 0.38672,-0.14844 c 2.42578,-0.92969 4.73437,-2.1875 7.01953,-3.83985 2.23047,-1.61718 4.4375,-3.61328 6.69531,-6.04687 l 0.30859,-0.32813 -0.375,-0.25 c -9.2539,-6.01953 -15.125,-6.7539 -15.30468,-6.77734 z m 0,0"
           id="path11038" />
        <path
           style="fill:#e1e6eb;fill-opacity:1;fill-rule:nonzero;stroke:none"
           d="m 839.625,287.57031 -0.92578,0.27735 c -0.4961,0.14453 -13.20703,4.02343 -24.3125,13.44921 l -0.79688,0.67188 0.73438,0.74609 c 3.03125,3.07813 6.48437,5.76563 10.51953,8.14453 l -0.26172,0.44532 0.26172,-0.44532 c 3.94141,2.33204 8.44141,4.36329 13.62891,6.1875 l 1.08593,0.38282 0.1875,-1.13672 c 1.0625,-6.33203 1.41407,-11.59766 1.41407,-15.78516 0,-7.75 -1.19141,-11.80078 -1.25391,-12.01172 z m 0,0"
           id="path11040" />
        <path
           style="fill:#e1e6eb;fill-opacity:1;fill-rule:nonzero;stroke:none"
           d="m 766.04687,286.03125 -2.24218,1 c -0.9961,0.4375 -25.36328,11.42969 -45.20313,33.12109 l -1.79297,1.95703 2.08203,1.63672 c 6.83204,5.38282 14.41797,9.86719 23.06641,13.58594 l -0.19922,0.47266 0.19922,-0.47266 c 8.46484,3.63672 17.94922,6.54297 28.75391,8.84375 l 2.85937,0.60938 0.125,-2.92969 c 0.13281,-3.23828 0.19531,-6.33594 0.19531,-9.28906 0,-30.51563 -6.57031,-45.66407 -6.84765,-46.29688 z m 0,0"
           id="path11042" />
        <path
           style="fill:#e1e6eb;fill-opacity:1;fill-rule:nonzero;stroke:none"
           d="m 927.79687,286.36328 -0.14062,0.0195 c -0.21094,0.0234 -6.03516,0.82031 -11.51563,4.13281 l -0.13281,0.082 0.0859,0.125 c 1.09766,1.54687 2.40625,2.95312 3.98828,4.26953 l -0.33203,0.39453 0.33203,-0.39453 c 1.54688,1.28515 3.35547,2.49218 5.49219,3.65234 l 0.15234,0.0781 0.0547,-0.16016 c 1.8125,-5.33984 2.08984,-9.04297 2.08984,-10.83203 0,-0.77344 -0.0508,-1.19141 -0.0547,-1.22266 z m 0,0"
           id="path11044" />
        <path
           style="fill:#e1e6eb;fill-opacity:1;fill-rule:nonzero;stroke:none"
           d="m 976.86328,331.81641 -0.0117,0.14453 c -0.0117,0.0742 -0.0976,0.9414 -0.0937,2.3125 -0.004,2.30078 0.24219,6.02343 1.46485,9.84375 l 0.0469,0.14843 0.14453,-0.0625 c 1.75781,-0.70703 3.42578,-1.65625 5.07422,-2.89453 1.60547,-1.20703 3.19531,-2.69531 4.82031,-4.50781 l 0.10938,-0.125 -0.14453,-0.0898 c -6.85157,-4.28907 -11.15625,-4.74219 -11.26563,-4.75391 z m 0,0"
           id="path11046" />
        <path
           style="fill:#e1e6eb;fill-opacity:1;fill-rule:nonzero;stroke:none"
           d="m 1024.8984,277.27344 -0.047,0.0508 c -0.1289,0.13281 -3.6368,3.96875 -5.4922,9.32422 l -0.027,0.0742 0.074,0.0195 c 1.6172,0.42968 3.3047,0.64453 5.1251,0.64453 1.7773,0 3.6914,-0.21094 5.8007,-0.625 l 0.082,-0.0156 -0.027,-0.0781 c -2.5703,-6.67969 -5.3711,-9.28906 -5.4375,-9.34766 z m 0,0"
           id="path11048" />
        <path
           style="fill:#e1e6eb;fill-opacity:1;fill-rule:nonzero;stroke:none"
           d="m 863.58594,241.875 -0.17188,0.53516 c -0.0976,0.29296 -2.18359,6.90234 -2.18359,15.27343 0,1.55078 0.0742,3.15625 0.24219,4.79688 l 0.0625,0.60156 0.59375,-0.10547 c 3.08593,-0.54687 6.10937,-1.50781 9.1875,-2.9414 3.01171,-1.40235 6.07812,-3.25391 9.30078,-5.61719 l 0.54297,-0.39453 -0.48047,-0.46485 c -9.55469,-9.22656 -16.33985,-11.44531 -16.5586,-11.51562 z m 0,0"
           id="path11050" />
        <path
           style="fill:#e1e6eb;fill-opacity:1;fill-rule:nonzero;stroke:none"
           d="m 614.84766,216.87891 -0.82032,0.88281 c -0.41797,0.45312 -10.83593,11.82812 -16.3789,27.8164 l -0.42969,1.22657 1.25781,0.33593 c 4.85156,1.28907 9.89844,1.9375 15.33594,1.9375 5.32422,0 11.02344,-0.61718 17.28906,-1.85937 l 1.40625,-0.28125 -0.51172,-1.33594 c -7.625,-19.8164 -15.96484,-27.625 -16.26562,-27.90625 z m 0,0"
           id="path11052" />
        <path
           style="fill:#e1e6eb;fill-opacity:1;fill-rule:nonzero;stroke:none"
           d="m 1569.8828,49.40625 -0.9453,0.273438 c -0.5078,0.144531 -13.4062,3.929687 -24.7539,13.34375 l -0.8164,0.675781 0.7383,0.765625 c 3.0351,3.152344 6.5,5.90625 10.5547,8.363281 l -0.2657,0.4375 0.2657,-0.4375 c 3.9687,2.398437 8.4961,4.507813 13.7265,6.40625 l 1.1016,0.402344 0.207,-1.152344 c 1.2188,-6.8125 1.6016,-12.417969 1.6016,-16.78125 0,-7.308594 -1.0781,-11.140625 -1.1367,-11.347656 z m 0,0"
           id="path11054" />
        <path
           style="fill:#e1e6eb;fill-opacity:1;fill-rule:nonzero;stroke:none"
           d="m 1641.9844,44.324219 -0.043,0.382812 c -0.019,0.121094 -0.1953,1.648438 -0.1953,4.007813 0,3.164062 0.3203,7.835937 1.7734,12.652344 l 0.1133,0.394531 0.3867,-0.152344 c 2.4258,-0.925781 4.7344,-2.1875 7.0196,-3.839844 2.2304,-1.617187 4.4375,-3.609375 6.6953,-6.042969 l 0.3086,-0.332031 -0.375,-0.246093 c -9.2539,-6.019532 -15.125,-6.753907 -15.3047,-6.78125 z m 0,0"
           id="path11056" />
        <path
           style="fill:#e1e6eb;fill-opacity:1;fill-rule:nonzero;stroke:none"
           d="m 1714.4023,86.042969 -0.9257,0.277343 c -0.4961,0.148438 -13.2071,4.027344 -24.3125,13.449219 l -0.7969,0.675779 0.7344,0.7461 c 3.0312,3.07812 6.4843,5.76562 10.5195,8.14453 l -0.2617,0.44531 0.2617,-0.44531 c 3.9414,2.32812 8.4414,4.36328 13.6289,6.18359 l 1.0859,0.38281 0.1875,-1.13281 c 1.0625,-6.33203 1.4141,-11.60156 1.4141,-15.789061 0,-7.75 -1.1914,-11.800781 -1.2539,-12.011719 z m 0,0"
           id="path11058" />
        <path
           style="fill:#e1e6eb;fill-opacity:1;fill-rule:nonzero;stroke:none"
           d="m 1750.2734,131.67187 -0.8906,0.37891 c -0.4805,0.19922 -12.6953,5.42578 -22.7226,15.98828 l -0.7188,0.75781 0.8047,0.66016 c 3.3477,2.73438 7.0703,5.03125 11.3359,6.96484 4.1719,1.89063 8.8633,3.42969 14.2188,4.6836 l 1.1172,0.26172 0.07,-1.14844 c 0.1289,-2.25 0.1875,-4.36328 0.1875,-6.33984 0,-14.02344 -2.9102,-21.03907 -3.0235,-21.3125 z m 0,0"
           id="path11060" />
        <path
           style="fill:#e1e6eb;fill-opacity:1;fill-rule:nonzero;stroke:none"
           d="m 1573.7188,161.81641 -0.07,0.004 h -0.01 l -0.9414,0.0117 0.016,0.94141 c 0,0.51172 0.254,13.57422 6.1836,26.60937 l 0.418,0.92578 0.8945,-0.49218 c 3.7266,-2.03516 7.1914,-4.57813 10.5274,-7.75391 3.2617,-3.10156 6.3945,-6.8125 9.5156,-11.23047 l 0.6445,-0.91406 -1.0117,-0.48047 c -15.625,-7.41016 -25.164,-7.62109 -26.1679,-7.62109"
           id="path11062" />
        <path
           style="fill:#e1e6eb;fill-opacity:1;fill-rule:nonzero;stroke:none"
           d="m 1640.8242,84.507812 -2.2422,0.996094 c -0.9961,0.441406 -25.3632,11.433594 -45.2031,33.125004 l -1.793,1.95703 2.0821,1.63672 c 6.832,5.38281 14.4179,9.86328 23.0664,13.58203 l -0.1992,0.47265 0.1992,-0.47265 c 8.4648,3.63672 17.9492,6.54297 28.7539,8.84375 l 2.8594,0.60937 0.125,-2.92578 c 0.1328,-3.24219 0.1953,-6.33594 0.1953,-9.28906 0,-30.51563 -6.5703,-45.664064 -6.8477,-46.296876 z m 0,0"
           id="path11064" />
        <path
           style="fill:#e1e6eb;fill-opacity:1;fill-rule:nonzero;stroke:none"
           d="m 1802.5742,84.839844 -0.1406,0.01953 c -0.2109,0.02344 -6.0352,0.820313 -11.5156,4.128906 l -0.1328,0.08203 0.086,0.125 c 1.0977,1.550782 2.4062,2.957032 3.9883,4.273438 l -0.3321,0.394531 0.3321,-0.394531 c 1.5469,1.285156 3.3554,2.488281 5.4922,3.648438 l 0.1523,0.08203 0.055,-0.160157 c 1.8125,-5.339843 2.0898,-9.042968 2.0898,-10.832031 0,-0.777343 -0.051,-1.191406 -0.055,-1.226562 z m 0,0"
           id="path11066" />
        <path
           style="fill:#e1e6eb;fill-opacity:1;fill-rule:nonzero;stroke:none"
           d="m 1851.6406,130.29297 -0.012,0.14453 c -0.012,0.0703 -0.098,0.94141 -0.094,2.3125 0,2.30078 0.2421,6.02344 1.4648,9.83984 l 0.047,0.14844 0.1445,-0.0586 c 1.7578,-0.71094 3.4258,-1.66016 5.0742,-2.89453 1.6055,-1.21094 3.1953,-2.69922 4.8203,-4.51172 l 0.1094,-0.125 -0.1445,-0.0898 c -6.8516,-4.28515 -11.1563,-4.74218 -11.2656,-4.7539 z m 0,0"
           id="path11068" />
        <path
           style="fill:#e1e6eb;fill-opacity:1;fill-rule:nonzero;stroke:none"
           d="m 1899.6758,75.75 -0.047,0.04687 c -0.1289,0.136719 -3.6367,3.972656 -5.4922,9.328125 l -0.027,0.07031 0.074,0.01953 c 1.6172,0.429687 3.3047,0.648437 5.125,0.648437 1.7773,0 3.6914,-0.210937 5.8008,-0.628906 l 0.082,-0.01563 -0.027,-0.07422 c -2.5703,-6.679687 -5.3711,-9.289062 -5.4375,-9.347656 z m 0,0"
           id="path11070" />
        <path
           style="fill:#e1e6eb;fill-opacity:1;fill-rule:nonzero;stroke:none"
           d="m 1738.3633,40.351562 -0.1719,0.535157 c -0.098,0.292969 -2.1836,6.898437 -2.1836,15.273437 0,1.546875 0.074,3.15625 0.2422,4.792969 l 0.062,0.605469 0.5938,-0.105469 c 3.0859,-0.546875 6.1093,-1.511719 9.1875,-2.941406 3.0117,-1.40625 6.0781,-3.257813 9.3007,-5.617188 l 0.543,-0.398437 -0.4805,-0.464844 c -9.5547,-9.222656 -16.3398,-11.441406 -16.5586,-11.511719 z m 0,0"
           id="path11072" />
        <path
           style="fill:#e1e6eb;fill-opacity:1;fill-rule:nonzero;stroke:none"
           d="m 1489.625,15.355469 -0.8203,0.882812 c -0.418,0.449219 -10.8359,11.824219 -16.3789,27.816407 l -0.4297,1.226562 1.2578,0.332031 c 4.8516,1.292969 9.8984,1.941407 15.3359,1.941407 5.3243,0 11.0235,-0.621094 17.2891,-1.863282 l 1.4063,-0.277344 -0.5118,-1.339843 c -7.625,-19.816407 -15.9648,-27.621094 -16.2656,-27.902344 z m 0,0"
           id="path11074" />
        <path
           style="fill:#e1e6eb;fill-opacity:1;fill-rule:nonzero;stroke:none"
           d="m 1437.0352,250.93359 -0.9454,0.27344 c -0.5078,0.14063 -13.4101,3.92969 -24.7539,13.33984 l -0.8164,0.67969 0.7344,0.76563 c 3.0352,3.14843 6.5039,5.90625 10.5547,8.35937 l -0.2617,0.44141 0.2617,-0.44141 c 3.9687,2.39844 8.5,4.50781 13.7305,6.41016 l 1.1015,0.39844 0.2071,-1.15235 c 1.2148,-6.8125 1.5976,-12.41406 1.5976,-16.78125 0,-7.30859 -1.0742,-11.14062 -1.1367,-11.34765 z m 0,0"
           id="path11076" />
        <path
           style="fill:#e1e6eb;fill-opacity:1;fill-rule:nonzero;stroke:none"
           d="m 1509.1367,245.85156 -0.047,0.37891 c -0.016,0.125 -0.1914,1.64844 -0.1914,4.01172 0,3.16406 0.3204,7.83593 1.7696,12.64843 l 0.1172,0.39454 0.3867,-0.14844 c 2.4219,-0.92969 4.7304,-2.1875 7.0156,-3.83985 2.2305,-1.61718 4.4414,-3.61328 6.6992,-6.04687 l 0.3086,-0.32813 -0.3789,-0.25 c -9.25,-6.01953 -15.125,-6.7539 -15.3047,-6.77734 z m 0,0"
           id="path11078" />
        <path
           style="fill:#e1e6eb;fill-opacity:1;fill-rule:nonzero;stroke:none"
           d="m 1581.5547,287.57031 -0.9258,0.27735 c -0.5,0.14453 -13.207,4.02343 -24.3164,13.44921 l -0.793,0.67188 0.7305,0.74609 c 3.0313,3.07813 6.4883,5.76563 10.5195,8.14453 l -0.2617,0.44532 0.2617,-0.44532 c 3.9414,2.33204 8.4414,4.36329 13.6328,6.1875 l 1.086,0.38282 0.1875,-1.13672 c 1.0586,-6.33203 1.4101,-11.59766 1.4101,-15.78516 0,-7.75 -1.1875,-11.80078 -1.2539,-12.01172 z m 0,0"
           id="path11080" />
        <path
           style="fill:#e1e6eb;fill-opacity:1;fill-rule:nonzero;stroke:none"
           d="m 1507.9766,286.03125 -2.2422,1 c -1,0.4375 -25.3672,11.42969 -45.2031,33.12109 l -1.793,1.95703 2.0781,1.63672 c 6.8359,5.38282 14.418,9.86719 23.0703,13.58594 l -0.2031,0.47266 0.2031,-0.47266 c 8.461,3.63672 17.9492,6.54297 28.7539,8.84375 l 2.8594,0.60938 0.1211,-2.92969 c 0.1367,-3.23828 0.1992,-6.33594 0.1992,-9.28906 0,-30.51563 -6.5703,-45.66407 -6.8515,-46.29688 z m 0,0"
           id="path11082" />
        <path
           style="fill:#e1e6eb;fill-opacity:1;fill-rule:nonzero;stroke:none"
           d="m 1669.7227,286.36328 -0.1407,0.0195 c -0.207,0.0234 -6.0351,0.82031 -11.5156,4.13281 l -0.1328,0.082 0.09,0.125 c 1.0977,1.54687 2.4024,2.95312 3.9844,4.26953 l -0.3281,0.39453 0.3281,-0.39453 c 1.5469,1.28515 3.3594,2.49218 5.4922,3.65234 l 0.1563,0.0781 0.055,-0.16016 c 1.8086,-5.33984 2.0899,-9.04297 2.0899,-10.83203 0,-0.77344 -0.055,-1.19141 -0.059,-1.22266 z m 0,0"
           id="path11084" />
        <path
           style="fill:#e1e6eb;fill-opacity:1;fill-rule:nonzero;stroke:none"
           d="m 1718.793,331.81641 -0.016,0.14453 c -0.01,0.0742 -0.094,0.9414 -0.094,2.3125 0,2.30078 0.2422,6.02343 1.4687,9.84375 l 0.047,0.14843 0.1446,-0.0625 c 1.7578,-0.70703 3.4218,-1.65625 5.0703,-2.89453 1.6054,-1.20703 3.1953,-2.69531 4.8203,-4.50781 l 0.1094,-0.125 -0.1446,-0.0898 c -6.8515,-4.28907 -11.1562,-4.74219 -11.2617,-4.75391 z m 0,0"
           id="path11086" />
        <path
           style="fill:#e1e6eb;fill-opacity:1;fill-rule:nonzero;stroke:none"
           d="m 1766.8281,277.27344 -0.047,0.0508 c -0.129,0.13281 -3.6368,3.96875 -5.4922,9.32422 l -0.027,0.0742 0.074,0.0195 c 1.6172,0.42968 3.3008,0.64453 5.1211,0.64453 1.7774,0 3.6914,-0.21094 5.8047,-0.625 l 0.078,-0.0156 -0.027,-0.0781 c -2.5703,-6.67969 -5.3711,-9.28906 -5.4375,-9.34766 z m 0,0"
           id="path11088" />
        <path
           style="fill:#e1e6eb;fill-opacity:1;fill-rule:nonzero;stroke:none"
           d="m 1605.5117,241.875 -0.1719,0.53516 c -0.094,0.29296 -2.1796,6.90234 -2.1796,15.27343 0,1.55078 0.074,3.15625 0.2382,4.79688 l 0.062,0.60156 0.5977,-0.10547 c 3.082,-0.54687 6.1094,-1.50781 9.1875,-2.9414 3.0078,-1.40235 6.0742,-3.25391 9.3008,-5.61719 l 0.5429,-0.39453 -0.4843,-0.46485 c -9.5547,-9.22656 -16.3399,-11.44531 -16.5547,-11.51562 z m 0,0"
           id="path11090" />
        <path
           style="fill:#e1e6eb;fill-opacity:1;fill-rule:nonzero;stroke:none"
           d="m 1356.7734,216.87891 -0.8164,0.88281 c -0.4179,0.45312 -10.8359,11.82812 -16.3828,27.8164 l -0.4258,1.22657 1.2539,0.33593 c 4.8555,1.28907 9.8985,1.9375 15.3399,1.9375 5.3203,0 11.0234,-0.61718 17.2891,-1.85937 l 1.4062,-0.28125 -0.5156,-1.33594 c -7.625,-19.8164 -15.961,-27.625 -16.2617,-27.90625 z m 0,0"
           id="path11092" />
        <path
           style="fill:#e1e6eb;fill-opacity:1;fill-rule:nonzero;stroke:none"
           d="m 9.769531,130.29297 -0.015625,0.14453 c -0.00781,0.0703 -0.09375,0.94141 -0.089844,2.3125 -0.00391,2.30078 0.238282,6.02344 1.464844,9.83984 l 0.04687,0.14844 0.144531,-0.0586 c 1.757813,-0.71094 3.421876,-1.66016 5.074219,-2.89453 1.605469,-1.21094 3.195313,-2.69922 4.816407,-4.51172 l 0.113281,-0.125 -0.148438,-0.0898 c -6.847656,-4.28515 -11.152343,-4.74218 -11.261719,-4.7539 z m 0,0"
           id="path11094" />
        <path
           style="fill:#e1e6eb;fill-opacity:1;fill-rule:nonzero;stroke:none"
           d="m 57.804688,75.75 -0.04688,0.04687 c -0.128906,0.136719 -3.636718,3.972656 -5.492187,9.328125 l -0.02734,0.07031 0.07422,0.01953 c 1.617188,0.429687 3.300781,0.648437 5.121094,0.648437 1.78125,0 3.691406,-0.210937 5.804687,-0.628906 l 0.07813,-0.01563 -0.02734,-0.07422 c -2.566406,-6.679687 -5.367187,-9.289062 -5.4375,-9.347656 z m 0,0"
           id="path11096" />
        <path
           style="fill:#e1e6eb;fill-opacity:1;fill-rule:nonzero;stroke:none"
           d="m 466.5625,49.40625 -0.94531,0.273438 c -0.50782,0.144531 -13.41016,3.929687 -24.75391,13.34375 l -0.81641,0.675781 0.73438,0.765625 c 3.03516,3.152344 6.50391,5.90625 10.55469,8.363281 l -0.26563,0.4375 0.26563,-0.4375 c 3.96875,2.398437 8.5,4.507813 13.73047,6.40625 l 1.10156,0.402344 0.20703,-1.152344 c 1.21484,-6.8125 1.59766,-12.417969 1.59766,-16.78125 0,-7.308594 -1.07422,-11.140625 -1.13672,-11.347656 z m 0,0"
           id="path11098" />
        <path
           style="fill:#e1e6eb;fill-opacity:1;fill-rule:nonzero;stroke:none"
           d="m 538.66406,44.324219 -0.0469,0.382812 c -0.0156,0.121094 -0.19141,1.648438 -0.19141,4.007813 0,3.164062 0.32031,7.835937 1.76953,12.652344 l 0.11719,0.394531 0.38672,-0.152344 c 2.42187,-0.925781 4.73047,-2.1875 7.01562,-3.839844 2.23047,-1.617187 4.44141,-3.609375 6.69922,-6.042969 l 0.3086,-0.332031 -0.37891,-0.246093 c -9.25,-6.019532 -15.125,-6.753907 -15.30469,-6.78125 z m 0,0"
           id="path11100" />
        <path
           style="fill:#e1e6eb;fill-opacity:1;fill-rule:nonzero;stroke:none"
           d="m 611.08203,86.042969 -0.92578,0.277343 c -0.5,0.148438 -13.20703,4.027344 -24.31641,13.449219 l -0.79297,0.675779 0.73047,0.7461 c 3.03125,3.07812 6.48828,5.76562 10.51953,8.14453 l -0.26171,0.44531 0.26171,-0.44531 c 3.94141,2.32812 8.44141,4.36328 13.63282,6.18359 l 1.08593,0.38281 0.1875,-1.13281 c 1.0586,-6.33203 1.41016,-11.60156 1.41016,-15.789061 0,-7.75 -1.1875,-11.800781 -1.25391,-12.011719 z m 0,0"
           id="path11102" />
        <path
           style="fill:#e1e6eb;fill-opacity:1;fill-rule:nonzero;stroke:none"
           d="m 646.95312,131.67187 -0.89062,0.37891 c -0.48047,0.19922 -12.69922,5.42578 -22.72656,15.98828 l -0.71875,0.75781 0.80468,0.66016 c 3.35157,2.73438 7.07422,5.03125 11.33985,6.96484 4.17187,1.89063 8.85937,3.42969 14.21484,4.6836 l 1.1211,0.26172 0.0664,-1.14844 c 0.13281,-2.25 0.19141,-4.36328 0.19141,-6.33984 -0.004,-14.02344 -2.91016,-21.03907 -3.02344,-21.3125 z m 0,0"
           id="path11104" />
        <path
           style="fill:#e1e6eb;fill-opacity:1;fill-rule:nonzero;stroke:none"
           d="m 470.39844,161.81641 -0.0742,0.004 h -0.004 l -0.9414,0.0117 0.0117,0.94141 c 0.004,0.51172 0.25782,13.57422 6.1836,26.60937 l 0.42187,0.92578 0.89063,-0.49218 c 3.73047,-2.03516 7.19531,-4.57813 10.52734,-7.75391 3.26172,-3.10156 6.39844,-6.8125 9.51563,-11.23047 l 0.64843,-0.91406 -1.01562,-0.48047 c -15.62109,-7.41016 -25.16016,-7.62109 -26.16406,-7.62109"
           id="path11106" />
        <path
           style="fill:#e1e6eb;fill-opacity:1;fill-rule:nonzero;stroke:none"
           d="m 537.50391,84.507812 -2.24219,0.996094 c -1,0.441406 -25.36719,11.433594 -45.20313,33.125004 l -1.79297,1.95703 2.07813,1.63672 c 6.83594,5.38281 14.41797,9.86328 23.07031,13.58203 l -0.20312,0.47265 0.20312,-0.47265 c 8.46094,3.63672 17.94922,6.54297 28.75391,8.84375 l 2.85937,0.60937 0.1211,-2.92578 c 0.13672,-3.24219 0.19922,-6.33594 0.19922,-9.28906 0,-30.51563 -6.57032,-45.664064 -6.85157,-46.296876 z m 0,0"
           id="path11108" />
        <path
           style="fill:#e1e6eb;fill-opacity:1;fill-rule:nonzero;stroke:none"
           d="m 699.25,84.839844 -0.14063,0.01953 c -0.20703,0.02344 -6.03515,0.820313 -11.51562,4.128906 l -0.13281,0.08203 0.0898,0.125 c 1.09766,1.550782 2.40234,2.957032 3.98438,4.273438 l -0.32813,0.394531 0.32813,-0.394531 c 1.54687,1.285156 3.35937,2.488281 5.49218,3.648438 l 0.15625,0.08203 0.0547,-0.160157 c 1.80859,-5.339843 2.08984,-9.042968 2.08984,-10.832031 0,-0.777343 -0.0547,-1.191406 -0.0586,-1.226562 z m 0,0"
           id="path11110" />
        <path
           style="fill:#e1e6eb;fill-opacity:1;fill-rule:nonzero;stroke:none"
           d="m 748.32031,130.29297 -0.0156,0.14453 c -0.008,0.0703 -0.0937,0.94141 -0.0937,2.3125 0,2.30078 0.24218,6.02344 1.46875,9.83984 l 0.0469,0.14844 0.14453,-0.0586 c 1.75782,-0.71094 3.42188,-1.66016 5.07032,-2.89453 1.60546,-1.21094 3.19531,-2.69922 4.82031,-4.51172 l 0.10937,-0.125 -0.14453,-0.0898 c -6.85156,-4.28515 -11.15625,-4.74218 -11.26172,-4.7539 z m 0,0"
           id="path11112" />
        <path
           style="fill:#e1e6eb;fill-opacity:1;fill-rule:nonzero;stroke:none"
           d="m 796.35547,75.75 -0.0469,0.04687 c -0.1289,0.136719 -3.63672,3.972656 -5.49218,9.328125 l -0.0274,0.07031 0.0742,0.01953 c 1.61719,0.429687 3.30078,0.648437 5.12109,0.648437 1.77735,0 3.69141,-0.210937 5.80469,-0.628906 l 0.0781,-0.01563 -0.0274,-0.07422 c -2.57031,-6.679687 -5.37109,-9.289062 -5.4375,-9.347656 z m 0,0"
           id="path11114" />
        <path
           style="fill:#e1e6eb;fill-opacity:1;fill-rule:nonzero;stroke:none"
           d="m 635.03906,40.351562 -0.17187,0.535157 c -0.0937,0.292969 -2.17969,6.898437 -2.17969,15.273437 0,1.546875 0.0742,3.15625 0.23828,4.792969 l 0.0625,0.605469 0.59766,-0.105469 c 3.08203,-0.546875 6.10937,-1.511719 9.1875,-2.941406 3.00781,-1.40625 6.07422,-3.257813 9.30078,-5.617188 l 0.54297,-0.398437 -0.48438,-0.464844 C 642.57812,42.808594 635.79297,40.589844 635.57812,40.519531 Z m 0,0"
           id="path11116" />
        <path
           style="fill:#e1e6eb;fill-opacity:1;fill-rule:nonzero;stroke:none"
           d="m 386.30078,15.355469 -0.81641,0.882812 C 385.06641,16.6875 374.64844,28.0625 369.10156,44.054688 l -0.42578,1.226562 1.25391,0.332031 c 4.85547,1.292969 9.89843,1.941407 15.33984,1.941407 5.32031,0 11.02344,-0.621094 17.28906,-1.863282 l 1.40625,-0.277344 -0.51562,-1.339843 C 395.82422,24.257812 387.48828,16.453125 387.1875,16.171875 Z m 0,0"
           id="path11118" />
        <path
           style="fill:#e1e6eb;fill-opacity:1;fill-rule:nonzero;stroke:none"
           d="m 333.71094,250.93359 -0.94532,0.27344 c -0.50781,0.14063 -13.40625,3.92969 -24.75,13.33984 l -0.8164,0.67969 0.73437,0.76563 c 3.03516,3.14843 6.5,5.90625 10.55469,8.35937 l -0.26562,0.44141 0.26562,-0.44141 c 3.96875,2.39844 8.49609,4.50781 13.73047,6.41016 l 1.09766,0.39844 0.20703,-1.15235 c 1.21875,-6.8125 1.60156,-12.41406 1.60156,-16.78125 0,-7.30859 -1.07422,-11.14062 -1.13672,-11.34765 z m 0,0"
           id="path11120" />
        <path
           style="fill:#e1e6eb;fill-opacity:1;fill-rule:nonzero;stroke:none"
           d="m 405.8125,245.85156 -0.043,0.37891 c -0.0156,0.125 -0.19531,1.64844 -0.19531,4.01172 0,3.16406 0.32031,7.83593 1.77344,12.64843 l 0.11718,0.39454 0.38282,-0.14844 c 2.42578,-0.92969 4.73437,-2.1875 7.01953,-3.83985 2.23047,-1.61718 4.4375,-3.61328 6.69922,-6.04687 l 0.30859,-0.32813 -0.37891,-0.25 c -9.25,-6.01953 -15.125,-6.7539 -15.30468,-6.77734 z m 0,0"
           id="path11122" />
        <path
           style="fill:#e1e6eb;fill-opacity:1;fill-rule:nonzero;stroke:none"
           d="m 478.23047,287.57031 -0.92578,0.27735 c -0.4961,0.14453 -13.20313,4.02343 -24.3125,13.44921 l -0.79688,0.67188 0.73438,0.74609 c 3.03125,3.07813 6.48437,5.76563 10.51953,8.14453 l -0.26172,0.44532 0.26172,-0.44532 c 3.9414,2.33204 8.4414,4.36329 13.6289,6.1875 l 1.08985,0.38282 0.1875,-1.13672 c 1.05859,-6.33203 1.41015,-11.59766 1.41015,-15.78516 0,-7.75 -1.1914,-11.80078 -1.2539,-12.01172 z m 0,0"
           id="path11124" />
        <path
           style="fill:#e1e6eb;fill-opacity:1;fill-rule:nonzero;stroke:none"
           d="m 404.65234,286.03125 -2.24218,1 c -0.9961,0.4375 -25.36329,11.42969 -45.20313,33.12109 l -1.79297,1.95703 2.08203,1.63672 c 6.83594,5.38282 14.41797,9.86719 23.07032,13.58594 l -0.20313,0.47266 0.20313,-0.47266 c 8.46093,3.63672 17.94531,6.54297 28.7539,8.84375 l 2.85547,0.60938 0.125,-2.92969 c 0.13672,-3.23828 0.19531,-6.33594 0.19531,-9.28906 0,-30.51563 -6.57031,-45.66407 -6.84765,-46.29688 z m 0,0"
           id="path11126" />
        <path
           style="fill:#e1e6eb;fill-opacity:1;fill-rule:nonzero;stroke:none"
           d="m 566.40234,286.36328 -0.14062,0.0195 c -0.20703,0.0234 -6.03516,0.82031 -11.51563,4.13281 l -0.13281,0.082 0.0898,0.125 c 1.09375,1.54687 2.40235,2.95312 3.98438,4.26953 l -0.33203,0.39453 0.33203,-0.39453 c 1.54687,1.28515 3.35937,2.49218 5.49219,3.65234 l 0.15234,0.0781 0.0586,-0.16016 c 1.8086,-5.33984 2.08985,-9.04297 2.08985,-10.83203 0,-0.77344 -0.0547,-1.19141 -0.0586,-1.22266 z m 0,0"
           id="path11128" />
        <path
           style="fill:#e1e6eb;fill-opacity:1;fill-rule:nonzero;stroke:none"
           d="m 615.46875,331.81641 -0.0117,0.14453 c -0.0117,0.0742 -0.0937,0.9414 -0.0937,2.3125 0,2.30078 0.24219,6.02343 1.46484,9.84375 l 0.0469,0.14843 0.14844,-0.0625 c 1.7539,-0.70703 3.42187,-1.65625 5.07031,-2.89453 1.60547,-1.20703 3.19531,-2.69531 4.82031,-4.50781 l 0.10938,-0.125 -0.14453,-0.0898 c -6.85157,-4.28907 -11.15625,-4.74219 -11.26563,-4.75391 z m 0,0"
           id="path11130" />
        <path
           style="fill:#e1e6eb;fill-opacity:1;fill-rule:nonzero;stroke:none"
           d="m 663.50391,277.27344 -0.043,0.0508 c -0.12891,0.13281 -3.63672,3.96875 -5.4961,9.32422 l -0.0234,0.0742 0.0703,0.0195 c 1.62109,0.42968 3.30469,0.64453 5.125,0.64453 1.77734,0 3.6914,-0.21094 5.80078,-0.625 l 0.082,-0.0156 -0.0273,-0.0781 c -2.57032,-6.67969 -5.3711,-9.28906 -5.4375,-9.34766 z m 0,0"
           id="path11132" />
        <path
           style="fill:#e1e6eb;fill-opacity:1;fill-rule:nonzero;stroke:none"
           d="m 502.19141,241.875 -0.17188,0.53516 c -0.0937,0.29296 -2.17969,6.90234 -2.17969,15.27343 0,1.55078 0.0703,3.15625 0.23828,4.79688 l 0.0625,0.60156 0.59766,-0.10547 c 3.08203,-0.54687 6.10547,-1.50781 9.1875,-2.9414 3.00781,-1.40235 6.07422,-3.25391 9.29688,-5.61719 l 0.54296,-0.39453 -0.48046,-0.46485 c -9.55469,-9.22656 -16.33985,-11.44531 -16.5586,-11.51562 z m 0,0"
           id="path11134" />
        <path
           style="fill:#e1e6eb;fill-opacity:1;fill-rule:nonzero;stroke:none"
           d="m 253.45312,216.87891 -0.82031,0.88281 c -0.41797,0.45312 -10.83203,11.82812 -16.3789,27.8164 l -0.42969,1.22657 1.25781,0.33593 c 4.85547,1.28907 9.89844,1.9375 15.33984,1.9375 5.32032,0 11.01954,-0.61718 17.28907,-1.85937 l 1.40234,-0.28125 -0.51172,-1.33594 c -7.625,-19.8164 -15.96094,-27.625 -16.26172,-27.90625 z m 0,0"
           id="path11136" />
        <path
           style="fill:#e1e6eb;fill-opacity:1;fill-rule:nonzero;stroke:none"
           d="m 1197.2305,49.40625 -0.9453,0.273438 c -0.5079,0.144531 -13.4063,3.929687 -24.7539,13.34375 l -0.8165,0.675781 0.7383,0.765625 c 3.0352,3.152344 6.5,5.90625 10.5547,8.363281 l -0.2656,0.4375 0.2656,-0.4375 c 3.9688,2.398437 8.4961,4.507813 13.7266,6.40625 l 1.1015,0.402344 0.2071,-1.152344 c 1.2187,-6.8125 1.6015,-12.417969 1.6015,-16.78125 0,-7.308594 -1.0781,-11.140625 -1.1367,-11.347656 z m 0,0"
           id="path11138" />
        <path
           style="fill:#e1e6eb;fill-opacity:1;fill-rule:nonzero;stroke:none"
           d="m 1269.332,44.324219 -0.043,0.382812 c -0.02,0.121094 -0.1953,1.648438 -0.1953,4.007813 0,3.164062 0.3203,7.835937 1.7734,12.652344 l 0.1133,0.394531 0.3867,-0.152344 c 2.4258,-0.925781 4.7344,-2.1875 7.0195,-3.839844 2.2305,-1.617187 4.4375,-3.609375 6.6953,-6.042969 l 0.3086,-0.332031 -0.375,-0.246093 c -9.2539,-6.019532 -15.125,-6.753907 -15.3047,-6.78125 z m 0,0"
           id="path11140" />
        <path
           style="fill:#e1e6eb;fill-opacity:1;fill-rule:nonzero;stroke:none"
           d="m 1341.75,86.042969 -0.9258,0.277343 c -0.4961,0.148438 -13.207,4.027344 -24.3125,13.449219 l -0.7969,0.675779 0.7344,0.7461 c 3.0313,3.07812 6.4844,5.76562 10.5196,8.14453 l -0.2618,0.44531 0.2618,-0.44531 c 3.9414,2.32812 8.4414,4.36328 13.6289,6.18359 l 1.0859,0.38281 0.1875,-1.13281 c 1.0625,-6.33203 1.4141,-11.60156 1.4141,-15.789061 0,-7.75 -1.1914,-11.800781 -1.2539,-12.011719 z m 0,0"
           id="path11142" />
        <path
           style="fill:#e1e6eb;fill-opacity:1;fill-rule:nonzero;stroke:none"
           d="m 1377.6211,131.67187 -0.8906,0.37891 c -0.4805,0.19922 -12.6953,5.42578 -22.7227,15.98828 l -0.7187,0.75781 0.8047,0.66016 c 3.3476,2.73438 7.0703,5.03125 11.3359,6.96484 4.1719,1.89063 8.8633,3.42969 14.2187,4.6836 l 1.1172,0.26172 0.07,-1.14844 c 0.1289,-2.25 0.1875,-4.36328 0.1875,-6.33984 0,-14.02344 -2.9101,-21.03907 -3.0234,-21.3125 z m 0,0"
           id="path11144" />
        <path
           style="fill:#e1e6eb;fill-opacity:1;fill-rule:nonzero;stroke:none"
           d="m 1201.0664,161.81641 -0.07,0.004 h -0.01 l -0.9414,0.0117 0.016,0.94141 c 0,0.51172 0.2539,13.57422 6.1836,26.60937 l 0.418,0.92578 0.8945,-0.49218 c 3.7266,-2.03516 7.1914,-4.57813 10.5273,-7.75391 3.2618,-3.10156 6.3946,-6.8125 9.5157,-11.23047 l 0.6445,-0.91406 -1.0117,-0.48047 c -15.625,-7.41016 -25.1641,-7.62109 -26.168,-7.62109"
           id="path11146" />
        <path
           style="fill:#e1e6eb;fill-opacity:1;fill-rule:nonzero;stroke:none"
           d="m 1268.1719,84.507812 -2.2422,0.996094 c -0.9961,0.441406 -25.3633,11.433594 -45.2031,33.125004 l -1.793,1.95703 2.082,1.63672 c 6.8321,5.38281 14.418,9.86328 23.0664,13.58203 l -0.1992,0.47265 0.1992,-0.47265 c 8.4649,3.63672 17.9493,6.54297 28.7539,8.84375 l 2.8594,0.60937 0.125,-2.92578 c 0.1328,-3.24219 0.1953,-6.33594 0.1953,-9.28906 0,-30.51563 -6.5703,-45.664064 -6.8476,-46.296876 z m 0,0"
           id="path11148" />
        <path
           style="fill:#e1e6eb;fill-opacity:1;fill-rule:nonzero;stroke:none"
           d="m 1429.9219,84.839844 -0.1406,0.01953 c -0.211,0.02344 -6.0352,0.820313 -11.5157,4.128906 l -0.1328,0.08203 0.086,0.125 c 1.0976,1.550782 2.4062,2.957032 3.9882,4.273438 l -0.332,0.394531 0.332,-0.394531 c 1.5469,1.285156 3.3555,2.488281 5.4922,3.648438 l 0.1524,0.08203 0.055,-0.160157 c 1.8125,-5.339843 2.0898,-9.042968 2.0898,-10.832031 0,-0.777343 -0.051,-1.191406 -0.055,-1.226562 z m 0,0"
           id="path11150" />
        <path
           style="fill:#e1e6eb;fill-opacity:1;fill-rule:nonzero;stroke:none"
           d="m 1478.9883,130.29297 -0.012,0.14453 c -0.012,0.0703 -0.098,0.94141 -0.094,2.3125 0,2.30078 0.2422,6.02344 1.4649,9.83984 l 0.047,0.14844 0.1446,-0.0586 c 1.7578,-0.71094 3.4257,-1.66016 5.0742,-2.89453 1.6055,-1.21094 3.1953,-2.69922 4.8203,-4.51172 l 0.1094,-0.125 -0.1446,-0.0898 c -6.8515,-4.28515 -11.1562,-4.74218 -11.2656,-4.7539 z m 0,0"
           id="path11152" />
        <path
           style="fill:#e1e6eb;fill-opacity:1;fill-rule:nonzero;stroke:none"
           d="m 1527.0234,75.75 -0.047,0.04687 c -0.1289,0.136719 -3.6368,3.972656 -5.4922,9.328125 l -0.024,0.07031 0.07,0.01953 c 1.6171,0.429687 3.3046,0.648437 5.125,0.648437 1.7773,0 3.6914,-0.210937 5.8007,-0.628906 l 0.082,-0.01563 -0.027,-0.07422 c -2.5703,-6.679687 -5.3711,-9.289062 -5.4375,-9.347656 z m 0,0"
           id="path11154" />
        <path
           style="fill:#e1e6eb;fill-opacity:1;fill-rule:nonzero;stroke:none"
           d="m 1365.7109,40.351562 -0.1718,0.535157 c -0.098,0.292969 -2.1836,6.898437 -2.1836,15.273437 0,1.546875 0.074,3.15625 0.2422,4.792969 l 0.062,0.605469 0.5937,-0.105469 c 3.0859,-0.546875 6.1094,-1.511719 9.1875,-2.941406 3.0117,-1.40625 6.0781,-3.257813 9.3008,-5.617188 l 0.543,-0.398437 -0.4805,-0.464844 c -9.5547,-9.222656 -16.3399,-11.441406 -16.5586,-11.511719 z m 0,0"
           id="path11156" />
        <path
           style="fill:#e1e6eb;fill-opacity:1;fill-rule:nonzero;stroke:none"
           d="m 1116.9727,15.355469 -0.8204,0.882812 c -0.4179,0.449219 -10.8359,11.824219 -16.3789,27.816407 l -0.4296,1.226562 1.2578,0.332031 c 4.8515,1.292969 9.8984,1.941407 15.3359,1.941407 5.3242,0 11.0234,-0.621094 17.2891,-1.863282 l 1.4062,-0.277344 -0.5117,-1.339843 c -7.625,-19.816407 -15.9648,-27.621094 -16.2656,-27.902344 z m 0,0"
           id="path11158" />
        <path
           style="fill:#e1e6eb;fill-opacity:1;fill-rule:nonzero;stroke:none"
           d="m 1064.3828,250.93359 -0.9453,0.27344 c -0.5078,0.14063 -13.4102,3.92969 -24.7539,13.33984 l -0.8164,0.67969 0.7344,0.76563 c 3.0351,3.14843 6.5039,5.90625 10.5547,8.35937 l -0.2657,0.44141 0.2657,-0.44141 c 3.9687,2.39844 8.5,4.50781 13.7304,6.41016 l 1.1016,0.39844 0.207,-1.15235 c 1.2149,-6.8125 1.5977,-12.41406 1.5977,-16.78125 0,-7.30859 -1.0742,-11.14062 -1.1367,-11.34765 z m 0,0"
           id="path11160" />
        <path
           style="fill:#e1e6eb;fill-opacity:1;fill-rule:nonzero;stroke:none"
           d="m 1136.4844,245.85156 -0.047,0.37891 c -0.016,0.125 -0.1914,1.64844 -0.1914,4.01172 0,3.16406 0.3203,7.83593 1.7695,12.64843 l 0.1172,0.39454 0.3867,-0.14844 c 2.4219,-0.92969 4.7305,-2.1875 7.0157,-3.83985 2.2304,-1.61718 4.4414,-3.61328 6.6992,-6.04687 l 0.3086,-0.32813 -0.3789,-0.25 c -9.25,-6.01953 -15.125,-6.7539 -15.3047,-6.77734 z m 0,0"
           id="path11162" />
        <path
           style="fill:#e1e6eb;fill-opacity:1;fill-rule:nonzero;stroke:none"
           d="m 1208.9023,287.57031 -0.9257,0.27735 c -0.5,0.14453 -13.2071,4.02343 -24.3164,13.44921 l -0.793,0.67188 0.7305,0.74609 c 3.0312,3.07813 6.4882,5.76563 10.5195,8.14453 l -0.2617,0.44532 0.2617,-0.44532 c 3.9414,2.33204 8.4414,4.36329 13.6328,6.1875 l 1.0859,0.38282 0.1875,-1.13672 c 1.0586,-6.33203 1.4102,-11.59766 1.4102,-15.78516 0,-7.75 -1.1875,-11.80078 -1.2539,-12.01172 z m 0,0"
           id="path11164" />
        <path
           style="fill:#e1e6eb;fill-opacity:1;fill-rule:nonzero;stroke:none"
           d="m 1135.3242,286.03125 -2.2422,1 c -1,0.4375 -25.3672,11.42969 -45.2031,33.12109 l -1.793,1.95703 2.0782,1.63672 c 6.8359,5.38282 14.4179,9.86719 23.0703,13.58594 l -0.2031,0.47266 0.2031,-0.47266 c 8.4609,3.63672 17.9492,6.54297 28.7539,8.84375 l 2.8594,0.60938 0.1211,-2.92969 c 0.1367,-3.23828 0.1992,-6.33594 0.1992,-9.28906 0,-30.51563 -6.5703,-45.66407 -6.8516,-46.29688 z m 0,0"
           id="path11166" />
        <path
           style="fill:#e1e6eb;fill-opacity:1;fill-rule:nonzero;stroke:none"
           d="m 1297.0703,286.36328 -0.1406,0.0195 c -0.207,0.0234 -6.0352,0.82031 -11.5156,4.13281 l -0.1328,0.082 0.09,0.125 c 1.0977,1.54687 2.4023,2.95312 3.9844,4.26953 l -0.3282,0.39453 0.3282,-0.39453 c 1.5468,1.28515 3.3593,2.49218 5.4922,3.65234 l 0.1562,0.0781 0.055,-0.16016 c 1.8086,-5.33984 2.0898,-9.04297 2.0898,-10.83203 0,-0.77344 -0.055,-1.19141 -0.059,-1.22266 z m 0,0"
           id="path11168" />
        <path
           style="fill:#e1e6eb;fill-opacity:1;fill-rule:nonzero;stroke:none"
           d="m 1346.1406,331.81641 -0.016,0.14453 c -0.01,0.0742 -0.094,0.9414 -0.094,2.3125 0,2.30078 0.2421,6.02343 1.4687,9.84375 l 0.047,0.14843 0.1445,-0.0625 c 1.7578,-0.70703 3.4219,-1.65625 5.0703,-2.89453 1.6055,-1.20703 3.1953,-2.69531 4.8203,-4.50781 l 0.1094,-0.125 -0.1445,-0.0898 c -6.8516,-4.28907 -11.1563,-4.74219 -11.2617,-4.75391 z m 0,0"
           id="path11170" />
        <path
           style="fill:#e1e6eb;fill-opacity:1;fill-rule:nonzero;stroke:none"
           d="m 1394.1758,277.27344 -0.047,0.0508 c -0.1289,0.13281 -3.6367,3.96875 -5.4922,9.32422 l -0.027,0.0742 0.074,0.0195 c 1.6172,0.42968 3.3008,0.64453 5.1211,0.64453 1.7773,0 3.6914,-0.21094 5.8047,-0.625 l 0.078,-0.0156 -0.027,-0.0781 c -2.5704,-6.67969 -5.3711,-9.28906 -5.4375,-9.34766 z m 0,0"
           id="path11172" />
        <path
           style="fill:#e1e6eb;fill-opacity:1;fill-rule:nonzero;stroke:none"
           d="m 1232.8594,241.875 -0.1719,0.53516 c -0.094,0.29296 -2.1797,6.90234 -2.1797,15.27343 0,1.55078 0.074,3.15625 0.2383,4.79688 l 0.062,0.60156 0.5977,-0.10547 c 3.082,-0.54687 6.1093,-1.50781 9.1875,-2.9414 3.0078,-1.40235 6.0742,-3.25391 9.3007,-5.61719 l 0.543,-0.39453 -0.4844,-0.46485 c -9.5547,-9.22656 -16.3398,-11.44531 -16.5547,-11.51562 z m 0,0"
           id="path11174" />
        <path
           style="fill:#e1e6eb;fill-opacity:1;fill-rule:nonzero;stroke:none"
           d="m 984.12109,216.87891 -0.8164,0.88281 c -0.41797,0.45312 -10.83594,11.82812 -16.38282,27.8164 l -0.42578,1.22657 1.25391,0.33593 c 4.85547,1.28907 9.89844,1.9375 15.33984,1.9375 5.32032,0 11.02344,-0.61718 17.28906,-1.85937 l 1.4063,-0.28125 -0.5157,-1.33594 c -7.62497,-19.8164 -15.96091,-27.625 -16.26169,-27.90625 z m 0,0"
           id="path11176" />
        <path
           style="fill:#e1e6eb;fill-opacity:1;fill-rule:nonzero;stroke:none"
           d="m 1939.1602,49.40625 -0.9454,0.273438 c -0.5078,0.144531 -13.4101,3.929687 -24.7539,13.34375 l -0.8164,0.675781 0.7344,0.765625 c 3.0352,3.152344 6.5039,5.90625 10.5547,8.363281 l -0.2617,0.4375 0.2617,-0.4375 c 3.9687,2.398437 8.5,4.507813 13.7305,6.40625 l 1.1015,0.402344 0.2071,-1.152344 c 1.2148,-6.8125 1.5976,-12.417969 1.5976,-16.78125 0,-7.308594 -1.0742,-11.140625 -1.1367,-11.347656 z m 0,0"
           id="path11178" />
        <path
           style="fill:#e1e6eb;fill-opacity:1;fill-rule:nonzero;stroke:none"
           d="m 1858.8984,15.355469 -0.8164,0.882812 c -0.4179,0.449219 -10.8359,11.824219 -16.3828,27.816407 l -0.4258,1.226562 1.2539,0.332031 c 4.8555,1.292969 9.8985,1.941407 15.3399,1.941407 5.3203,0 11.0234,-0.621094 17.2891,-1.863282 l 1.4062,-0.277344 -0.5156,-1.339843 c -7.625,-19.816407 -15.961,-27.621094 -16.2617,-27.902344 z m 0,0"
           id="path11180" />
        <path
           style="fill:#e1e6eb;fill-opacity:1;fill-rule:nonzero;stroke:none"
           d="m 1806.3086,250.93359 -0.9453,0.27344 c -0.5078,0.14063 -13.4063,3.92969 -24.7539,13.33984 l -0.8164,0.67969 0.7383,0.76563 c 3.0351,3.14843 6.5,5.90625 10.5546,8.35937 l -0.2656,0.44141 0.2656,-0.44141 c 3.9688,2.39844 8.4961,4.50781 13.7266,6.41016 l 1.1016,0.39844 0.207,-1.15235 c 1.2187,-6.8125 1.6016,-12.41406 1.6016,-16.78125 0,-7.30859 -1.0782,-11.14062 -1.1407,-11.34765 z m 0,0"
           id="path11182" />
        <path
           style="fill:#e1e6eb;fill-opacity:1;fill-rule:nonzero;stroke:none"
           d="m 1878.4102,245.85156 -0.043,0.37891 c -0.019,0.125 -0.1953,1.64844 -0.1953,4.01172 0,3.16406 0.3203,7.83593 1.7734,12.64843 l 0.1133,0.39454 0.3867,-0.14844 c 2.4258,-0.92969 4.7344,-2.1875 7.0195,-3.83985 2.2305,-1.61718 4.4375,-3.61328 6.6954,-6.04687 l 0.3086,-0.32813 -0.375,-0.25 c -9.254,-6.01953 -15.125,-6.7539 -15.3047,-6.77734 z m 0,0"
           id="path11184" />
        <path
           style="fill:#e1e6eb;fill-opacity:1;fill-rule:nonzero;stroke:none"
           d="m 1877.25,286.03125 -2.2422,1 c -0.9961,0.4375 -25.3633,11.42969 -45.2031,33.12109 l -1.793,1.95703 2.0821,1.63672 c 6.832,5.38282 14.4179,9.86719 23.0664,13.58594 l -0.1993,0.47266 0.1993,-0.47266 c 8.4648,3.63672 17.9492,6.54297 28.7539,8.84375 l 2.8593,0.60938 0.125,-2.92969 c 0.1329,-3.23828 0.1954,-6.33594 0.1954,-9.28906 0,-30.51563 -6.5704,-45.66407 -6.8477,-46.29688 z m 0,0"
           id="path11186" />
        <path
           style="fill:#e1e6eb;fill-opacity:1;fill-rule:nonzero;stroke:none"
           d="m 1726.0508,216.87891 -0.8203,0.88281 c -0.418,0.45312 -10.836,11.82812 -16.3789,27.8164 l -0.4297,1.22657 1.2578,0.33593 c 4.8516,1.28907 9.8984,1.9375 15.3359,1.9375 5.3242,0 11.0235,-0.61718 17.2891,-1.85937 l 1.4062,-0.28125 -0.5117,-1.33594 c -7.625,-19.8164 -15.9648,-27.625 -16.2656,-27.90625 z m 0,0"
           id="path11188" />
      </g>
    </g>
  </g>
</svg>
