<?xml version="1.0" encoding="utf-8"?>
<!-- Generator: Adobe Illustrator 24.0.1, SVG Export Plug-In . SVG Version: 6.00 Build 0)  -->
<svg version="1.1" id="Layer_1" xmlns="http://www.w3.org/2000/svg" xmlns:xlink="http://www.w3.org/1999/xlink" x="0px" y="0px"
	 viewBox="0 0 88 86" style="enable-background:new 0 0 88 86;" xml:space="preserve">
<style type="text/css">
	.st0{fill:#FFFFFF;}
</style>
<g>
	<path class="st0" d="M25.3,74c-0.3-0.3-0.7-0.5-1.2-0.6c-0.3-0.1-0.8-0.1-1.4-0.1H20v7.9h2.8c0.5,0,0.9,0,1.3-0.1
		c0.4-0.1,0.7-0.2,0.9-0.4c0.3-0.2,0.5-0.4,0.7-0.7s0.4-0.7,0.5-1.1c0.1-0.5,0.2-1,0.2-1.6c0-0.7-0.1-1.3-0.3-1.9
		C26,74.8,25.7,74.3,25.3,74z M25.2,78.7c-0.1,0.4-0.3,0.7-0.6,1c-0.2,0.2-0.4,0.3-0.7,0.4c-0.3,0.1-0.7,0.1-1.2,0.1H21v-6h1.7
		c0.6,0,1.1,0.1,1.3,0.2c0.4,0.2,0.7,0.4,1,0.9c0.3,0.4,0.4,1.1,0.4,1.9C25.4,77.8,25.4,78.3,25.2,78.7z"/>
	<path class="st0" d="M30,75.3c-0.7,0-1.3,0.2-1.8,0.6c-0.6,0.5-0.9,1.3-0.9,2.3c0,1,0.2,1.7,0.7,2.2c0.5,0.5,1.1,0.8,1.9,0.8
		c0.5,0,1-0.1,1.4-0.3c0.4-0.2,0.7-0.6,1-1c0.2-0.4,0.3-1,0.3-1.7c0-0.9-0.2-1.6-0.7-2.1S30.8,75.3,30,75.3z M31.2,80
		c-0.3,0.4-0.7,0.5-1.2,0.5c-0.5,0-0.9-0.2-1.2-0.5s-0.5-0.9-0.5-1.6s0.2-1.3,0.5-1.6s0.7-0.5,1.2-0.5c0.5,0,0.9,0.2,1.2,0.5
		c0.3,0.4,0.5,0.9,0.5,1.6C31.7,79,31.5,79.6,31.2,80z"/>
	<path class="st0" d="M38.9,78.8l-0.3,1.1l-0.3-1.1l-0.9-3.3h-1l-0.9,3.3c-0.2,0.7-0.3,1.1-0.3,1.2l-0.3-1.2L34,75.5h-1l1.7,5.7h1
		l1.2-4.4l0.2,1l0.9,3.4h1l1.8-5.7h-0.9L38.9,78.8z"/>
	<path class="st0" d="M45.8,76c-0.1-0.2-0.4-0.4-0.6-0.5c-0.3-0.1-0.6-0.2-0.9-0.2c-0.8,0-1.4,0.3-1.8,0.9v-0.8h-0.9v5.7h1v-3.1
		c0-0.7,0.1-1.2,0.4-1.5c0.3-0.3,0.7-0.4,1.1-0.4c0.3,0,0.5,0.1,0.7,0.2c0.2,0.1,0.3,0.3,0.4,0.5s0.1,0.5,0.1,0.9v3.5h1v-3.5
		c0-0.4,0-0.8-0.1-0.9C46.1,76.5,46,76.2,45.8,76z"/>
	<rect x="47.5" y="73.3" class="st0" width="1" height="7.9"/>
	<path class="st0" d="M52.2,75.3c-0.7,0-1.3,0.2-1.8,0.6c-0.6,0.5-0.9,1.3-0.9,2.3c0,1,0.2,1.7,0.7,2.2c0.5,0.5,1.1,0.8,1.9,0.8
		c0.5,0,1-0.1,1.4-0.3c0.4-0.2,0.7-0.6,1-1c0.2-0.4,0.3-1,0.3-1.7c0-0.9-0.2-1.6-0.7-2.1C53.6,75.6,53,75.3,52.2,75.3z M53.4,80
		c-0.3,0.4-0.7,0.5-1.2,0.5c-0.5,0-0.9-0.2-1.2-0.5c-0.3-0.4-0.5-0.9-0.5-1.6s0.2-1.3,0.5-1.6c0.3-0.4,0.7-0.5,1.2-0.5
		c0.5,0,0.9,0.2,1.2,0.5s0.5,0.9,0.5,1.6C53.9,79,53.7,79.6,53.4,80z"/>
	<path class="st0" d="M60.5,78.8v-1.3c0-0.4,0-0.7,0-0.9c-0.1-0.3-0.2-0.5-0.3-0.7c-0.1-0.2-0.4-0.3-0.7-0.4
		c-0.3-0.1-0.7-0.2-1.2-0.2c-0.5,0-0.9,0.1-1.3,0.2c-0.4,0.1-0.7,0.3-0.9,0.6c-0.2,0.2-0.3,0.6-0.4,1l0.9,0.1
		c0.1-0.4,0.3-0.7,0.5-0.8c0.2-0.2,0.6-0.2,1-0.2c0.5,0,0.9,0.1,1.1,0.3c0.2,0.2,0.3,0.4,0.3,0.8c0,0,0,0.1,0,0.3
		c-0.4,0.1-0.9,0.2-1.7,0.3c-0.4,0-0.7,0.1-0.9,0.1c-0.3,0.1-0.5,0.2-0.7,0.3c-0.2,0.1-0.4,0.3-0.5,0.6c-0.1,0.2-0.2,0.5-0.2,0.8
		c0,0.5,0.2,0.9,0.5,1.2c0.3,0.3,0.8,0.5,1.4,0.5c0.4,0,0.7-0.1,1.1-0.2c0.3-0.1,0.7-0.3,1-0.6c0,0.3,0.1,0.5,0.2,0.7h1
		c-0.1-0.2-0.2-0.4-0.2-0.7C60.5,80.3,60.5,79.7,60.5,78.8z M59.5,78.7c0,0.4-0.1,0.7-0.2,1c-0.1,0.3-0.3,0.5-0.6,0.7
		s-0.6,0.2-1,0.2c-0.4,0-0.7-0.1-0.9-0.3c-0.2-0.2-0.3-0.4-0.3-0.6c0-0.2,0-0.3,0.1-0.5c0.1-0.1,0.2-0.2,0.4-0.3
		c0.2-0.1,0.4-0.1,0.8-0.2c0.7-0.1,1.2-0.2,1.6-0.4V78.7z"/>
	<path class="st0" d="M65.5,73.3v2.8c-0.2-0.2-0.4-0.4-0.7-0.6c-0.3-0.1-0.6-0.2-0.9-0.2c-0.5,0-0.9,0.1-1.3,0.4
		c-0.4,0.2-0.7,0.6-0.9,1.1c-0.2,0.5-0.3,1-0.3,1.5c0,0.6,0.1,1.1,0.3,1.5c0.2,0.4,0.5,0.8,0.9,1c0.4,0.3,0.8,0.4,1.3,0.4
		c0.7,0,1.2-0.3,1.6-0.8v0.7h0.9v-7.9H65.5z M65.2,80c-0.3,0.3-0.7,0.5-1.1,0.5c-0.4,0-0.8-0.2-1.1-0.5c-0.3-0.4-0.5-0.9-0.5-1.6
		c0-0.8,0.1-1.3,0.4-1.7c0.3-0.4,0.6-0.5,1.1-0.5c0.4,0,0.8,0.2,1.1,0.5s0.5,0.9,0.5,1.7C65.6,79.1,65.5,79.6,65.2,80z"/>
</g>
<g>
	<path class="st0" d="M12.5,54.9L8.3,65.6h2.3l0.9-2.4h4.3l0.9,2.4h2.4l-4.3-10.7H12.5z M12.2,61.4l1.5-4l1.5,4H12.2z"/>
	<path class="st0" d="M24.4,57.7c-0.5,0-1,0.1-1.4,0.4s-0.8,0.6-1,1v-1.1H20v10.7h2.1v-3.9c0.4,0.4,0.8,0.7,1.1,0.9
		c0.3,0.2,0.7,0.3,1.2,0.3c0.9,0,1.7-0.4,2.3-1.1c0.6-0.7,1-1.7,1-3c0-1.3-0.3-2.3-0.9-3C26,58,25.3,57.7,24.4,57.7z M25,63.6
		c-0.3,0.4-0.7,0.6-1.2,0.6c-0.5,0-0.9-0.2-1.3-0.6c-0.3-0.4-0.5-1.1-0.5-1.9c0-0.8,0.2-1.3,0.5-1.7c0.3-0.4,0.7-0.6,1.3-0.6
		c0.5,0,0.9,0.2,1.2,0.6c0.3,0.4,0.5,1,0.5,1.8C25.5,62.6,25.4,63.2,25,63.6z"/>
	<path class="st0" d="M33.4,57.7c-0.5,0-1,0.1-1.4,0.4s-0.8,0.6-1,1v-1.1H29v10.7h2.1v-3.9c0.4,0.4,0.8,0.7,1.1,0.9
		c0.3,0.2,0.7,0.3,1.2,0.3c0.9,0,1.7-0.4,2.3-1.1c0.6-0.7,1-1.7,1-3c0-1.3-0.3-2.3-0.9-3C35,58,34.3,57.7,33.4,57.7z M34.1,63.6
		c-0.3,0.4-0.7,0.6-1.2,0.6c-0.5,0-0.9-0.2-1.3-0.6c-0.3-0.4-0.5-1.1-0.5-1.9c0-0.8,0.2-1.3,0.5-1.7c0.3-0.4,0.7-0.6,1.3-0.6
		c0.5,0,0.9,0.2,1.2,0.6c0.3,0.4,0.5,1,0.5,1.8C34.5,62.6,34.4,63.2,34.1,63.6z"/>
	<path class="st0" d="M48.7,59.7c-0.5-0.3-1.3-0.5-2.3-0.8c-1.1-0.3-1.7-0.5-2-0.7C44.2,58,44,57.8,44,57.5c0-0.3,0.1-0.5,0.3-0.7
		c0.4-0.3,0.8-0.4,1.5-0.4c0.6,0,1.1,0.1,1.4,0.4c0.3,0.2,0.5,0.6,0.6,1.2l2.2-0.1c0-1-0.4-1.8-1.1-2.4c-0.7-0.6-1.7-0.9-3-0.9
		c-0.8,0-1.5,0.1-2.1,0.4s-1,0.6-1.3,1.1c-0.3,0.5-0.5,1-0.5,1.5c0,0.8,0.3,1.6,1,2.2c0.5,0.4,1.3,0.8,2.4,1.1
		c0.9,0.2,1.5,0.4,1.7,0.5c0.4,0.1,0.6,0.3,0.8,0.5c0.1,0.2,0.2,0.4,0.2,0.6c0,0.4-0.2,0.7-0.5,1C47.3,63.8,46.7,64,46,64
		c-0.7,0-1.2-0.2-1.6-0.5c-0.4-0.3-0.6-0.9-0.8-1.6l-2.1,0.2c0.1,1.2,0.6,2.1,1.3,2.7c0.7,0.6,1.8,0.9,3.1,0.9
		c0.9,0,1.7-0.1,2.3-0.4c0.6-0.3,1.1-0.7,1.5-1.2s0.5-1.1,0.5-1.7c0-0.7-0.1-1.2-0.4-1.7C49.6,60.3,49.2,60,48.7,59.7z"/>
	<path class="st0" d="M54.7,64.1c-0.1,0-0.3,0-0.3-0.1c-0.1-0.1-0.2-0.2-0.2-0.3c0-0.1,0-0.5,0-1.1v-3.1h1.4v-1.6h-1.4v-2.7
		l-2.1,1.2v1.5h-0.9v1.6h0.9v3.4c0,0.7,0,1.2,0.1,1.4c0.1,0.3,0.1,0.6,0.3,0.8c0.1,0.2,0.4,0.4,0.7,0.5c0.3,0.1,0.6,0.2,1,0.2
		c0.6,0,1.1-0.1,1.6-0.3l-0.2-1.6C55.2,64,54.9,64.1,54.7,64.1z"/>
	<path class="st0" d="M60.4,57.7c-0.8,0-1.5,0.2-2.1,0.5c-0.6,0.3-1.1,0.8-1.4,1.5c-0.3,0.6-0.5,1.3-0.5,2c0,0.9,0.2,1.7,0.5,2.3
		c0.3,0.6,0.8,1.1,1.5,1.4c0.6,0.3,1.3,0.5,2,0.5c1.2,0,2.1-0.4,2.9-1.2c0.8-0.8,1.1-1.7,1.1-2.9c0-1.2-0.4-2.1-1.1-2.9
		C62.5,58,61.5,57.7,60.4,57.7z M61.7,63.5c-0.4,0.4-0.8,0.6-1.4,0.6s-1-0.2-1.4-0.6s-0.5-1-0.5-1.8s0.2-1.4,0.5-1.8
		s0.8-0.6,1.4-0.6s1,0.2,1.4,0.6c0.4,0.4,0.5,1,0.5,1.8C62.3,62.5,62.1,63.1,61.7,63.5z"/>
	<path class="st0" d="M68.5,57.9c-0.3,0.2-0.6,0.5-0.9,1v-1.1h-1.9v7.8h2.1v-2.4c0-1.3,0.1-2.2,0.2-2.6c0.1-0.4,0.3-0.7,0.5-0.9
		c0.2-0.2,0.4-0.2,0.7-0.2c0.3,0,0.6,0.1,1,0.3l0.6-1.8c-0.4-0.3-0.9-0.4-1.4-0.4C69.1,57.7,68.8,57.7,68.5,57.9z"/>
	<path class="st0" d="M75.5,64c-0.2,0.2-0.5,0.3-0.8,0.3c-0.5,0-0.9-0.2-1.2-0.5c-0.3-0.3-0.5-0.8-0.5-1.4h5.2c0-1.6-0.3-2.7-1-3.5
		c-0.7-0.8-1.6-1.1-2.7-1.1c-1,0-1.9,0.4-2.6,1.1c-0.7,0.7-1,1.7-1,3c0,1.1,0.3,2,0.8,2.7c0.6,0.9,1.7,1.3,3,1.3
		c0.9,0,1.6-0.2,2.1-0.6c0.6-0.4,1-1,1.2-1.7L76,63.1C75.9,63.5,75.7,63.8,75.5,64z M73.5,59.7c0.3-0.3,0.7-0.5,1.1-0.5
		c0.4,0,0.8,0.2,1.1,0.5c0.3,0.3,0.4,0.8,0.5,1.4h-3.1C73.1,60.5,73.2,60.1,73.5,59.7z"/>
</g>
<g>
	<g>
		<path class="st0" d="M51.3,5.7c0.1,0,0.2,0,0.3,0c0.2,2.9-0.9,5.1-2.2,6.7c-1.3,1.6-3.1,3.1-6.1,2.9c-0.2-2.9,0.9-4.9,2.3-6.5
			C46.8,7.3,49.1,6,51.3,5.7z"/>
		<path class="st0" d="M60.2,36C60.2,36,60.2,36.1,60.2,36c-0.8,2.6-2,4.7-3.4,6.7c-1.3,1.8-2.9,4.2-5.8,4.2c-2.5,0-4.1-1.6-6.7-1.6
			c-2.7,0-4.2,1.3-6.6,1.7c-0.3,0-0.6,0-0.8,0c-1.8-0.3-3.3-1.7-4.3-3c-3.1-3.8-5.5-8.7-6-15c0-0.6,0-1.2,0-1.8
			c0.2-4.5,2.4-8.2,5.3-9.9c1.5-0.9,3.6-1.7,6-1.4c1,0.2,2,0.5,2.9,0.8c0.9,0.3,1.9,0.9,2.9,0.9c0.7,0,1.4-0.4,2.1-0.6
			c2-0.7,4-1.6,6.6-1.2c3.1,0.5,5.4,1.9,6.8,4c-2.7,1.7-4.8,4.2-4.4,8.6C55,32.3,57.3,34.7,60.2,36z"/>
	</g>
</g>
</svg>
