<?xml version="1.0" encoding="utf-8"?>
<!-- Generator: Adobe Illustrator 24.0.1, SVG Export Plug-In . SVG Version: 6.00 Build 0)  -->
<svg version="1.1" id="Layer_1" xmlns="http://www.w3.org/2000/svg" xmlns:xlink="http://www.w3.org/1999/xlink" x="0px" y="0px"
	 viewBox="0 0 400 255.8" style="enable-background:new 0 0 400 255.8;" xml:space="preserve">
<style type="text/css">
	.st0{fill:#FFFFFF;}
	.st1{clip-path:url(#SVGID_37_);fill:#FFFFFF;}
	.st2{clip-path:url(#SVGID_38_);fill:#FFFFFF;}
	.st3{clip-path:url(#SVGID_39_);fill:#FFFFFF;}
	.st4{clip-path:url(#SVGID_40_);fill:#FFFFFF;}
	.st5{clip-path:url(#SVGID_41_);fill:#FFFFFF;}
	.st6{clip-path:url(#SVGID_42_);fill:#FFFFFF;}
	.st7{clip-path:url(#SVGID_43_);fill:#FFFFFF;}
	.st8{clip-path:url(#SVGID_44_);fill:#FFFFFF;}
	.st9{clip-path:url(#SVGID_45_);fill:#FFFFFF;}
	.st10{clip-path:url(#SVGID_46_);fill:#FFFFFF;}
	.st11{clip-path:url(#SVGID_47_);fill:#FFFFFF;}
	.st12{clip-path:url(#SVGID_48_);fill:#FFFFFF;}
	.st13{clip-path:url(#SVGID_49_);fill:#FFFFFF;}
	.st14{clip-path:url(#SVGID_50_);fill:#FFFFFF;}
	.st15{clip-path:url(#SVGID_51_);fill:#FFFFFF;}
	.st16{clip-path:url(#SVGID_52_);fill:#FFFFFF;}
	.st17{clip-path:url(#SVGID_53_);fill:#FFFFFF;}
	.st18{clip-path:url(#SVGID_54_);fill:#FFFFFF;}
	.st19{clip-path:url(#SVGID_55_);fill:#FFFFFF;}
	.st20{clip-path:url(#SVGID_56_);fill:#FFFFFF;}
	.st21{clip-path:url(#SVGID_57_);fill:#FFFFFF;}
	.st22{clip-path:url(#SVGID_58_);fill:#FFFFFF;}
	.st23{clip-path:url(#SVGID_59_);fill:#FFFFFF;}
	.st24{clip-path:url(#SVGID_60_);fill:#FFFFFF;}
	.st25{clip-path:url(#SVGID_61_);fill:#FFFFFF;}
	.st26{clip-path:url(#SVGID_62_);fill:#FFFFFF;}
	.st27{clip-path:url(#SVGID_63_);fill:#FFFFFF;}
	.st28{clip-path:url(#SVGID_64_);fill:#FFFFFF;}
	.st29{clip-path:url(#SVGID_65_);fill:#FFFFFF;}
	.st30{clip-path:url(#SVGID_66_);fill:#FFFFFF;}
	.st31{clip-path:url(#SVGID_67_);fill:#FFFFFF;}
	.st32{clip-path:url(#SVGID_68_);fill:#FFFFFF;}
	.st33{clip-path:url(#SVGID_69_);fill:#FFFFFF;}
	.st34{clip-path:url(#SVGID_70_);fill:#FFFFFF;}
	.st35{clip-path:url(#SVGID_71_);fill:#FFFFFF;}
	.st36{clip-path:url(#SVGID_72_);fill:#FFFFFF;}
</style>
<g>
	<rect x="114.6" y="123.4" class="st0" width="23.9" height="93.8"/>
	<path class="st0" d="M358.2,135.1V236h23.9V123L358.2,135.1z M370.3,110.5l5.3-2.6l3.4,7l-21.5,10.6v-8.6l4-1.9
		c-1.7-0.9-2.7-2.8-2.9-3.3c-2.1-4.2-0.9-9.3,3.7-11.5c3-1.5,6.2-1.6,9.6,0.2c0.1,0.2-0.9,6.3-0.9,6.3c-1.3-1.4-2.8-1.4-4-0.8
		c-1.2,0.6-1.9,2-1.2,3.5C366.5,110.3,368.1,111.6,370.3,110.5"/>
	<rect x="79.5" y="203.9" class="st0" width="20.6" height="20.6"/>
	<rect x="308.2" y="224.1" class="st0" width="20.6" height="11.9"/>
	<path class="st0" d="M60.4,132c-17.6,0-32.6,18-32.6,18l8.7,13c2.7-2.4,12.5-10,21.7-10.2c7.2,0,18.1,4.2,21.3,19.9H51.2l-0.9,0.1
		c-20,0-36.2,16.2-36.2,36.2c0,20,16.2,36.2,36.2,36.2l1.5,0.2h8.7l-4.7-21.3h-6c-8.5,0-14.3-7-14.3-15.4c0-8.4,5.6-15,14.1-15
		l0.3-0.1l27.2,0h29c0,0-1.4-9.5-2.7-19.5C100.8,156,89.4,132,60.4,132"/>
	<path class="st0" d="M325.6,150.8c0.2,11.6,0,24.8,0,36.8c0,5.6-3.4,8.2-8.5,8.2H179.2v-45.1l-25.6,9.4v59.2c0,2.4-0.5,4.1-1.5,5
		c-1,0.9-2.8,1.4-5.4,1.4h-22.2l-4.7,19.5h29.9c10.1,0,17.5-2.2,22.3-6.6c4.7-4.4,7.1-11.3,7.1-20.8v-0.7h144.4
		c16.9,0,25.7-9.4,25.7-23.9c0-16.7,0.2-22.9,0-42.4H325.6z"/>
	<path class="st0" d="M224,159.7c-2.4,3-4.2,6.1-5.5,9.2c-0.2,0.5-0.3,1.2-0.3,1.9c0,1.6,1.2,2.4,3.6,2.4c0.6,0,1.1,0,1.3-0.1
		c1.5-0.5,2.6-1,3.2-1.5c0.4-0.3,0.7-0.8,1-1.3c0.1-0.2,0.3-0.6,0.6-1.2c0.4-1,0.7-1.6,0.7-1.8c0-0.2,0.1-0.6,0.1-1.3v-0.9
		c-0.1-0.7-0.3-1.4-0.8-2C227.2,162.3,225.9,161.1,224,159.7 M222.8,168.8c-1.5,0-2.2-0.5-2.2-1.5c0-0.3,0.6-1.3,1.7-3
		c1.9,1.6,3,3,3.3,4.2C224.4,168.7,223.5,168.8,222.8,168.8"/>
	<path class="st0" d="M282.1,177.3c-0.3,0-1.3-0.7-2.8-1.9c-0.4,0.6-0.9,1.2-1.4,1.8c-0.5,0.6-0.7,1.1-0.8,1.3
		c1.1,0.9,2.1,1.6,3.1,2c0.6-0.9,1.2-1.6,1.6-1.9c1.7,1.3,2.7,1.9,3,1.9c0.2,0,0.5-0.4,1.2-1.3c0.4-0.6,0.7-1.1,1.1-1.7l-3.2-2.2
		C282.7,176.6,282.1,177.3,282.1,177.3"/>
	<path class="st0" d="M314.2,164.6c-0.3-1-0.5-1.8-0.6-2.3c-0.1-0.5-0.2-1-0.3-1.6c-0.1-0.4-0.5-0.6-1-0.6c-1,0-2.2,0.6-3.8,1.7
		c-1.5,1.2-2.4,2.3-2.8,3.4c-0.3,0.8-0.6,1.4-0.8,1.8c-0.2,0.5-0.3,0.9-0.5,1.1h-1.2h-1.7h-3h-6.8h-3H288c-0.6,0-1.1-0.2-1.5-0.5
		c-0.5-0.4-0.7-0.9-0.7-1.5c0-0.1,0.1-0.6,0.2-1.6c0.1-1,0.1-1.5,0.1-1.6v-2.3c-1.6,1.9-2.5,3.1-2.8,3.6c-0.1,0.7-0.1,1.3,0,1.7
		c-0.2,1.3-0.3,2.1-0.4,2.2h-5.4h-1.6h-3.1h-1.8h-2.9h3.1h-2.9h-1.8h-17.8h-1.8h-2.9h-1.8h-2.8h-1.2c-1.3,0-2-0.2-2.1-0.7
		c-0.6-6.8-1.1-12-1.3-15.6c-0.3,0.3-0.6,0.6-0.8,1c-1.2,1.7-1.8,2.7-1.8,3l1.4,17.1h4.1h1.9h2.8h1.8h2.9h1.8h17.8h1.8h2.9h-3.1h2.9
		h1.8h3.1h1.6h4.5c0.7-1.5,1.2-2.5,1.4-2.8c0.5,1.9,1.4,2.8,2.8,2.8h0.8h1.7h3h6.8h3h1.7h0.8c0.3,0,0.6-0.4,1-1.2
		c0.2-0.4,0.4-0.9,0.6-1.3c0.1-0.3,0.3-0.5,0.5-0.5c4.3,1.8,6.4,2.8,6.4,3c0.5-0.8,0.9-1.6,1.4-2.5c0.7-1.2,1-2.2,1-2.7
		C314.9,167.1,314.7,166,314.2,164.6 M308.1,165.2c0.8-0.6,1.5-0.9,2-0.8c0.4,0.9,0.7,1.6,0.8,2.1L308.1,165.2z"/>
	<g>
		<defs>
			<path id="SVGID_36_" d="M193.7,83.3c9.8,22.2,9,28.4,9,28.4v22.5h3.6v-16.7c0,0,0-7.4-0.7-13.4c-0.4-3.1-3.6-18.4-6.7-32.6
				c-4.9-0.3-7.5-1.6-11.6-2.8C189.2,72.8,191.3,77.7,193.7,83.3"/>
		</defs>
		<use xlink:href="#SVGID_36_"  style="overflow:visible;fill:#FFFFFF;"/>
		<clipPath id="SVGID_37_">
			<use xlink:href="#SVGID_36_"  style="overflow:visible;"/>
		</clipPath>
		<rect x="187.3" y="68.6" class="st1" width="18.9" height="65.5"/>
	</g>
	<g>
		<defs>
			<path id="SVGID_35_" d="M158.6,71c0.1,0.2,0.2,0.3,0.2,0.3l31.3,29.6c7.7,6.3,7,13.4,7,13.4v19.9h1.2v-15.2
				c0-8.1-0.4-12-4.4-17.3c-2.9-3.8-20.9-22.8-30.6-32.9C160.9,69.6,159.3,70.6,158.6,71"/>
		</defs>
		<use xlink:href="#SVGID_35_"  style="overflow:visible;fill:#FFFFFF;"/>
		<clipPath id="SVGID_38_">
			<use xlink:href="#SVGID_35_"  style="overflow:visible;"/>
		</clipPath>
		<rect x="158.6" y="68.7" class="st2" width="39.7" height="65.4"/>
	</g>
	<g>
		<defs>
			<path id="SVGID_34_" d="M222.4,99.2c-4.1,5.4-3.8,9.3-3.8,17.7c0,6.2,0.1,15.1,0.1,17.3h1.4v-19.9c0,0-0.7-7.1,7-13.4l7.1-6.7
				c-0.1-2.5-0.3-5.2-0.5-7.5C228.2,92.5,223.7,97.4,222.4,99.2"/>
		</defs>
		<use xlink:href="#SVGID_34_"  style="overflow:visible;fill:#FFFFFF;"/>
		<clipPath id="SVGID_39_">
			<use xlink:href="#SVGID_34_"  style="overflow:visible;"/>
		</clipPath>
		<rect x="218.3" y="86.7" class="st3" width="15.9" height="47.5"/>
	</g>
	<g>
		<defs>
			<path id="SVGID_33_" d="M208.8,70.7c-0.2,16.9-0.3,35.6-0.3,35.6v27.9h2.6v-24.7c0,0-0.7-5.5,9.2-29.1c1.3-3,2.4-5.8,3.5-8.4
				c-1.3-1.3-2.8-2.6-4.2-3.8C216,69,212.3,70,208.8,70.7"/>
		</defs>
		<use xlink:href="#SVGID_33_"  style="overflow:visible;fill:#FFFFFF;"/>
		<clipPath id="SVGID_40_">
			<use xlink:href="#SVGID_33_"  style="overflow:visible;"/>
		</clipPath>
		<rect x="208.5" y="68.1" class="st4" width="15.3" height="66.1"/>
	</g>
	<g>
		<defs>
			<path id="SVGID_32_" d="M217.2,96.2c0,0-4.5,6-4.5,18.6v19.4h4.7v-25.3c0,0-0.1-3,2.7-8.2c2.2-4.1,6.4-9.2,13.1-17.6
				c-0.1-0.6-0.2-1.1-0.3-1.5c-0.3-0.8-1.8-2.7-4.1-4.9L217.2,96.2z"/>
		</defs>
		<use xlink:href="#SVGID_32_"  style="overflow:visible;fill:#FFFFFF;"/>
		<clipPath id="SVGID_41_">
			<use xlink:href="#SVGID_32_"  style="overflow:visible;"/>
		</clipPath>
		<rect x="212.7" y="76.7" class="st5" width="20.5" height="57.4"/>
	</g>
	<g>
		<defs>
			<path id="SVGID_31_" d="M168.5,67.4c3.4,4.3,8.1,10.1,14.3,17.8c7,8.8,11.3,13.9,13.5,18c2.8,5.1,2.6,8,2.6,8v23h2.3v-17.3
				c0-12.2-4.4-18.1-4.4-18.1l-19-31.9c-1.1-0.1-2.1-0.1-3.1-0.1C172.4,66.8,170.3,67,168.5,67.4"/>
		</defs>
		<use xlink:href="#SVGID_31_"  style="overflow:visible;fill:#FFFFFF;"/>
		<clipPath id="SVGID_42_">
			<use xlink:href="#SVGID_31_"  style="overflow:visible;"/>
		</clipPath>
		<rect x="168.5" y="66.8" class="st6" width="32.7" height="67.4"/>
	</g>
	<path class="st0" d="M202.8,65.4c-11.1,0.5-11.7-3.2-24.3-4.5c-12.7-1.2-20.1,7.7-20.1,7.7s7.5-5.5,20.1-4.2
		c12.6,1.2,13.2,5,24.3,4.5c4.4-0.2,9.4-1.6,14.6-2.8c-1-0.9-2.1-1.9-3.1-2.7C210.2,64.3,206.3,65.2,202.8,65.4"/>
	<path class="st0" d="M198.6,59.2c-3.8-1.9-14.1,0.6-14.1,0.6S197,64,201.8,63c2.3-0.5,6.4-1.2,10.1-1.9c-0.4-0.3-0.7-0.6-1.1-0.9
		C206,60.4,200.6,60.2,198.6,59.2"/>
	<path class="st0" d="M201.7,58.1c0,0,2.8,0.8,7.7,0.9c-0.4-0.4-0.8-0.7-1.2-1C205.9,58.1,203.7,58,201.7,58.1"/>
	<g>
		<defs>
			<path id="SVGID_30_" d="M302.7,81.4c-2.8,12.8-5.7,26.6-6,29.3c-0.6,5.4-0.6,12-0.6,12v11.4h3.2v-16.5c0,0-0.7-5.6,8.1-25.6
				c2.2-5,4.1-9.4,5.8-13.2C309.4,80,307.1,81.2,302.7,81.4"/>
		</defs>
		<use xlink:href="#SVGID_30_"  style="overflow:visible;fill:#FFFFFF;"/>
		<clipPath id="SVGID_43_">
			<use xlink:href="#SVGID_30_"  style="overflow:visible;"/>
		</clipPath>
		<rect x="296.1" y="78.9" class="st7" width="17.1" height="55.3"/>
	</g>
	<g>
		<defs>
			<path id="SVGID_29_" d="M307.2,108.6c-3.6,4.7-3.9,8.2-3.9,15.5v10h1.1V120c0,0-0.6-6.4,6.3-12.1l28.2-26.6c0,0,0.1-0.1,0.2-0.3
				c-0.6-0.4-2-1.2-4.3-2.1C326,88.1,309.8,105.2,307.2,108.6"/>
		</defs>
		<use xlink:href="#SVGID_29_"  style="overflow:visible;fill:#FFFFFF;"/>
		<clipPath id="SVGID_44_">
			<use xlink:href="#SVGID_29_"  style="overflow:visible;"/>
		</clipPath>
		<rect x="303.2" y="78.9" class="st8" width="35.8" height="55.2"/>
	</g>
	<g>
		<defs>
			<path id="SVGID_28_" d="M271.8,102.7l5.5,5.2c6.9,5.7,6.3,12.1,6.3,12.1v14.2h1.3c0-2,0.1-6.3,0.1-11.9c0-7.5,0.2-11.1-3.4-15.9
				c-1.2-1.6-5.2-5.9-10-11.1C271.6,98,271.7,100.8,271.8,102.7"/>
		</defs>
		<use xlink:href="#SVGID_28_"  style="overflow:visible;fill:#FFFFFF;"/>
		<clipPath id="SVGID_45_">
			<use xlink:href="#SVGID_28_"  style="overflow:visible;"/>
		</clipPath>
		<rect x="271.6" y="95.3" class="st9" width="13.6" height="38.9"/>
	</g>
	<g>
		<defs>
			<path id="SVGID_27_" d="M283.4,89.4c8.9,21.2,8.3,26.2,8.3,26.2v18.6h2.3v-21.4c0,0-0.1-16.9-0.2-32.1c-4.9-1-10.3-2.7-15.5-3.4
				C279.8,80.8,281.5,84.8,283.4,89.4"/>
		</defs>
		<use xlink:href="#SVGID_27_"  style="overflow:visible;fill:#FFFFFF;"/>
		<clipPath id="SVGID_46_">
			<use xlink:href="#SVGID_27_"  style="overflow:visible;"/>
		</clipPath>
		<rect x="278.3" y="77.2" class="st10" width="15.8" height="56.9"/>
	</g>
	<g>
		<defs>
			<path id="SVGID_26_" d="M271.8,87.1c-0.2,0.9-0.3,2.5-0.3,4.5c6.3,7.8,10.1,12.5,12.1,16.2c2.6,4.7,2.4,7.4,2.4,7.4v19h4.2v-13.7
				c0-11.3-4-16.7-4-16.7l-12.6-21.1C272.8,84.2,272.1,85.7,271.8,87.1"/>
		</defs>
		<use xlink:href="#SVGID_26_"  style="overflow:visible;fill:#FFFFFF;"/>
		<clipPath id="SVGID_47_">
			<use xlink:href="#SVGID_26_"  style="overflow:visible;"/>
		</clipPath>
		<rect x="271.5" y="82.7" class="st11" width="18.7" height="51.5"/>
	</g>
	<g>
		<defs>
			<path id="SVGID_25_" d="M321.7,77.3L304.6,106c0,0-3.9,5.3-3.9,16.3v11.8h2.1v-17c0,0-0.1-2.6,2.4-7.2c2-3.7,5.8-8.3,12.2-16.2
				c5.6-6.9,9.7-12.2,12.8-16c-1.7-0.3-3.5-0.5-5.6-0.5C323.6,77.2,322.7,77.2,321.7,77.3"/>
		</defs>
		<use xlink:href="#SVGID_25_"  style="overflow:visible;fill:#FFFFFF;"/>
		<clipPath id="SVGID_48_">
			<use xlink:href="#SVGID_25_"  style="overflow:visible;"/>
		</clipPath>
		<rect x="300.7" y="77.2" class="st12" width="29.5" height="56.9"/>
	</g>
	<path class="st0" d="M299.2,79c10,0.5,10.5-2.9,21.9-4c11.4-1.1,18.1,3.8,18.1,3.8s-6.7-8.1-18.1-6.9c-11.4,1.1-11.9,4.5-21.9,4
		c-5.2-0.2-11.4-2.3-17.6-3.6c-0.8,0.9-1.6,1.8-2.4,2.7C286.2,76.2,293.4,78.8,299.2,79"/>
	<path class="st0" d="M284,70.9c0,0,11.8,2.1,16.1,3c4.3,0.9,15.6-3,15.6-3s-9.3-2.3-12.7-0.5C299.4,72.2,284,70.9,284,70.9"/>
	<path class="st0" d="M284.2,69.8c10,1.3,16-0.4,16-0.4c-3.8-0.3-8,0.4-14.7-1C285.1,68.8,284.6,69.3,284.2,69.8"/>
	<g>
		<defs>
			<path id="SVGID_24_" d="M231.8,45.5C245.7,77.2,244.6,86,244.6,86v48.1h5.1V94.2c0,0,0-10.5-1-19.1c-0.5-4.4-5.1-26.3-9.5-46.5
				c-7-0.4-10.6-2.3-16.5-4C225.3,30.6,228.3,37.5,231.8,45.5"/>
		</defs>
		<use xlink:href="#SVGID_24_"  style="overflow:visible;fill:#FFFFFF;"/>
		<clipPath id="SVGID_49_">
			<use xlink:href="#SVGID_24_"  style="overflow:visible;"/>
		</clipPath>
		<rect x="222.6" y="24.6" class="st13" width="27.1" height="109.6"/>
	</g>
	<g>
		<defs>
			<path id="SVGID_23_" d="M181.6,28c0.2,0.3,0.3,0.5,0.3,0.5l44.7,42.2c11,9,10,19.2,10,19.2v44.4h1.8V96.4
				c0-11.6-0.6-17.1-6.3-24.6c-4.1-5.4-29.8-32.5-43.7-47C184.9,26,182.5,27.4,181.6,28"/>
		</defs>
		<use xlink:href="#SVGID_23_"  style="overflow:visible;fill:#FFFFFF;"/>
		<clipPath id="SVGID_50_">
			<use xlink:href="#SVGID_23_"  style="overflow:visible;"/>
		</clipPath>
		<rect x="181.6" y="24.7" class="st14" width="56.7" height="109.4"/>
	</g>
	<g>
		<defs>
			<path id="SVGID_22_" d="M272.7,68.2c-5.8,7.7-5.4,13.4-5.4,25.2c0,8.8,0.1,37.6,0.1,40.8h2V89.8c0,0-1-10.2,10-19.2l41.9-39.6
				c-1.3-0.1-5.3-0.7-11.7-2.8C295.2,43.4,276.2,63.5,272.7,68.2"/>
		</defs>
		<use xlink:href="#SVGID_22_"  style="overflow:visible;fill:#FFFFFF;"/>
		<clipPath id="SVGID_51_">
			<use xlink:href="#SVGID_22_"  style="overflow:visible;"/>
		</clipPath>
		<rect x="266.9" y="28.3" class="st15" width="54.4" height="105.9"/>
	</g>
	<g>
		<defs>
			<path id="SVGID_21_" d="M253.3,27.5c-0.3,24.1-0.4,50.9-0.4,50.9v55.8h3.7V82.8c0,0-1-7.9,13.1-41.5c3-7.3,5.8-13.7,8.2-19.3
				C269.7,23.2,261.1,25.9,253.3,27.5"/>
		</defs>
		<use xlink:href="#SVGID_21_"  style="overflow:visible;fill:#FFFFFF;"/>
		<clipPath id="SVGID_52_">
			<use xlink:href="#SVGID_21_"  style="overflow:visible;"/>
		</clipPath>
		<rect x="252.9" y="22" class="st16" width="25" height="112.2"/>
	</g>
	<g>
		<defs>
			<path id="SVGID_20_" d="M265.3,64c0,0-6.4,8.6-6.4,26.5v43.7h6.6V82.1c0,0-0.2-4.2,3.9-11.7c3.3-6,9.5-13.5,19.7-26.3
				c5.7-7.1,10.5-13,14.5-18c-1.7-0.7-3.6-1.5-5.6-2.4c-2.4-1.1-4.9-1.7-7.5-2L265.3,64z"/>
		</defs>
		<use xlink:href="#SVGID_20_"  style="overflow:visible;fill:#FFFFFF;"/>
		<clipPath id="SVGID_53_">
			<use xlink:href="#SVGID_20_"  style="overflow:visible;"/>
		</clipPath>
		<rect x="258.9" y="21.6" class="st17" width="44.7" height="112.6"/>
	</g>
	<g>
		<defs>
			<path id="SVGID_19_" d="M195.7,22.8c4.9,6.2,11.5,14.4,20.3,25.4c10.1,12.5,16.1,19.9,19.3,25.7c4,7.3,3.8,11.4,3.8,11.4v48.8
				h3.3V93.5c0-17.5-6.3-25.9-6.3-25.9l-27.1-45.5c-1.5-0.1-3-0.2-4.4-0.2C201.4,22,198.4,22.3,195.7,22.8"/>
		</defs>
		<use xlink:href="#SVGID_19_"  style="overflow:visible;fill:#FFFFFF;"/>
		<clipPath id="SVGID_54_">
			<use xlink:href="#SVGID_19_"  style="overflow:visible;"/>
		</clipPath>
		<rect x="195.7" y="22" class="st18" width="46.7" height="112.2"/>
	</g>
	<path class="st0" d="M321.8,27.4c0,0-8.2-5.3-23.8-12.4c-15.6-7.1-37.5,4.3-53.4,5c-15.9,0.7-16.7-4.6-34.8-6.4
		c-18.1-1.8-28.7,11-28.7,11s10.7-7.8,28.7-6c18.1,1.8,18.9,7.1,34.8,6.4c15.9-0.7,37.8-12.1,53.4-5C313.6,27,321.8,27.4,321.8,27.4
		"/>
	<path class="st0" d="M218.5,11.9c0,0,17.9,6.1,24.8,4.7c6.9-1.4,25.5-4.7,25.5-4.7s-24.4,2.1-30.2-0.8
		C233.2,8.3,218.5,11.9,218.5,11.9"/>
	<path class="st0" d="M243.2,9.6c0,0,11.3,3.2,30.1-0.2c18.8-3.4,26.4,2.3,26.4,2.3s-12.4-9.5-26.9-5.3
		C258.3,10.7,250.3,9.1,243.2,9.6"/>
	<g>
		<defs>
			<path id="SVGID_18_" d="M202.7,133.5v1.5c0,0,0.8,0.4-9,1.8c-2.5,0.4-4.6,0.7-6.4,1c4.1-0.1,6.7-0.2,11.6-0.2
				c3.1-0.9,6.3-1.9,6.7-2.1c0.7-0.4,0.7-0.9,0.7-0.9v-1.1H202.7z"/>
		</defs>
		<use xlink:href="#SVGID_18_"  style="overflow:visible;fill:#FFFFFF;"/>
		<clipPath id="SVGID_55_">
			<use xlink:href="#SVGID_18_"  style="overflow:visible;"/>
		</clipPath>
		<rect x="187.3" y="133.5" class="st19" width="18.9" height="4.2"/>
	</g>
	<g>
		<defs>
			<path id="SVGID_17_" d="M197.1,133.5v1.3c0,0,0.7,0.5-7,0.9l-31.3,1.9c0,0-0.1,0-0.2,0c0.6,0,2.3,0.1,4.7,0.1
				c9.7-0.7,27.7-1.9,30.6-2.1c4-0.3,4.4-0.6,4.4-1.1v-1H197.1z"/>
		</defs>
		<use xlink:href="#SVGID_17_"  style="overflow:visible;fill:#FFFFFF;"/>
		<clipPath id="SVGID_56_">
			<use xlink:href="#SVGID_17_"  style="overflow:visible;"/>
		</clipPath>
		<rect x="158.6" y="133.5" class="st20" width="39.7" height="4.2"/>
	</g>
	<g>
		<defs>
			<path id="SVGID_16_" d="M218.7,133.5c0,0.1-0.1,0.7-0.1,1.1c0,0.5-0.3,0.8,3.8,1.1c2.5,0.2,15.7,1.1,25.9,1.8
				c4.5-0.1,7.2-0.1,8.2-0.1l-29.3-1.8c-7.7-0.4-7-0.9-7-0.9v-1.3H218.7z"/>
		</defs>
		<use xlink:href="#SVGID_16_"  style="overflow:visible;fill:#FFFFFF;"/>
		<clipPath id="SVGID_57_">
			<use xlink:href="#SVGID_16_"  style="overflow:visible;"/>
		</clipPath>
		<rect x="218.3" y="133.5" class="st21" width="38.1" height="4.1"/>
	</g>
	<g>
		<defs>
			<path id="SVGID_15_" d="M208.5,133.5v1.8c0,0,0.1,1.2,0.3,2.3c5.5,0.1,11.5,0.2,17.2,0.3c-1.7-0.3-3.6-0.5-5.7-0.9
				c-9.9-1.5-9.2-1.9-9.2-1.9v-1.6H208.5z"/>
		</defs>
		<use xlink:href="#SVGID_15_"  style="overflow:visible;fill:#FFFFFF;"/>
		<clipPath id="SVGID_58_">
			<use xlink:href="#SVGID_15_"  style="overflow:visible;"/>
		</clipPath>
		<rect x="208.5" y="133.5" class="st22" width="17.5" height="4.4"/>
	</g>
	<g>
		<defs>
			<path id="SVGID_14_" d="M212.7,133.5v1.2c0,0.8,4.5,1.2,4.5,1.2l17.7,1.9c1.8,0,3.6,0,5.2-0.1c1.4,0,2.7-0.1,3.9-0.1
				c-2.8-0.2-6.2-0.5-10.1-0.8c-7.2-0.6-11.5-0.9-13.8-1.2c-2.9-0.3-2.7-0.5-2.7-0.5v-1.6H212.7z"/>
		</defs>
		<use xlink:href="#SVGID_14_"  style="overflow:visible;fill:#FFFFFF;"/>
		<clipPath id="SVGID_59_">
			<use xlink:href="#SVGID_14_"  style="overflow:visible;"/>
		</clipPath>
		<rect x="212.7" y="133.5" class="st23" width="31.3" height="4.4"/>
	</g>
	<g>
		<defs>
			<path id="SVGID_13_" d="M198.9,133.5v1.5c0,0,0.2,0.2-2.6,0.5c-2.2,0.3-6.5,0.6-13.5,1.2c-6.2,0.5-10.8,0.9-14.3,1.1
				c2.6,0,5.8,0,9.3,0l19-2.1c0,0,4.4-0.4,4.4-1.2v-1.1H198.9z"/>
		</defs>
		<use xlink:href="#SVGID_13_"  style="overflow:visible;fill:#FFFFFF;"/>
		<clipPath id="SVGID_60_">
			<use xlink:href="#SVGID_13_"  style="overflow:visible;"/>
		</clipPath>
		<rect x="168.5" y="133.5" class="st24" width="32.7" height="4.4"/>
	</g>
	<path class="st0" d="M256.8,137.7c0,0-5.7,0.2-16.7,0.6c-10.9,0.3-26.2-0.2-37.4-0.2c-11.1,0-11.7,0.2-24.3,0.3
		c-12.7,0.1-20.1-0.5-20.1-0.5s7.5,0.3,20.1,0.3c12.6-0.1,13.2-0.3,24.3-0.3c11.1,0,26.4,0.6,37.4,0.2
		C251,137.7,256.8,137.7,256.8,137.7"/>
	<path class="st0" d="M184.5,138.4c0,0,12.5-0.3,17.3-0.2c4.8,0.1,17.9,0.2,17.9,0.2s-17.1-0.1-21.1,0
		C194.7,138.5,184.5,138.4,184.5,138.4"/>
	<path class="st0" d="M201.7,138.5c0,0,7.9-0.1,21.1,0c13.2,0.2,18.5-0.1,18.5-0.1s-8.7,0.4-18.9,0.2
		C212.3,138.4,206.7,138.5,201.7,138.5"/>
	<g>
		<defs>
			<path id="SVGID_12_" d="M296.1,133.5v0.7c0,0,0,0.4,0.6,0.8c0.3,0.2,3.2,1.1,6,1.9c4.4,0,6.7,0.1,10.4,0.2
				c-1.7-0.2-3.6-0.5-5.8-0.9c-8.8-1.3-8.1-1.7-8.1-1.7v-1.1H296.1z"/>
		</defs>
		<use xlink:href="#SVGID_12_"  style="overflow:visible;fill:#FFFFFF;"/>
		<clipPath id="SVGID_61_">
			<use xlink:href="#SVGID_12_"  style="overflow:visible;"/>
		</clipPath>
		<rect x="296.1" y="133.5" class="st25" width="17.1" height="3.6"/>
	</g>
	<g>
		<defs>
			<path id="SVGID_11_" d="M303.2,133.5v0.6c0,0.5,0.4,0.7,3.9,1c2.6,0.2,18.8,1.3,27.6,1.9c2.2-0.1,3.7-0.1,4.3-0.1
				c-0.1,0-0.2,0-0.2,0l-28.2-1.7c-6.9-0.4-6.3-0.8-6.3-0.8v-0.9H303.2z"/>
		</defs>
		<use xlink:href="#SVGID_11_"  style="overflow:visible;fill:#FFFFFF;"/>
		<clipPath id="SVGID_62_">
			<use xlink:href="#SVGID_11_"  style="overflow:visible;"/>
		</clipPath>
		<rect x="303.2" y="133.5" class="st26" width="35.8" height="3.6"/>
	</g>
	<g>
		<defs>
			<path id="SVGID_10_" d="M283.6,133.5v0.9c0,0,0.6,0.4-6.3,0.8l-26.4,1.6c0.8,0,3.3,0,7.4,0.1c9.1-0.6,21.1-1.4,23.3-1.6
				c3.7-0.3,3.4-0.6,3.4-1c0-0.4-0.1-0.6-0.1-0.8H283.6z"/>
		</defs>
		<use xlink:href="#SVGID_10_"  style="overflow:visible;fill:#FFFFFF;"/>
		<clipPath id="SVGID_63_">
			<use xlink:href="#SVGID_10_"  style="overflow:visible;"/>
		</clipPath>
		<rect x="250.9" y="133.5" class="st27" width="34.3" height="3.4"/>
	</g>
	<g>
		<defs>
			<path id="SVGID_9_" d="M291.7,133.5v1.2c0,0,0.6,0.3-8.3,1.7c-1.9,0.3-3.6,0.6-5.2,0.8c5.2-0.1,10.6-0.2,15.5-0.2
				c0.1-1,0.2-2.1,0.2-2.1v-1.4H291.7z"/>
		</defs>
		<use xlink:href="#SVGID_9_"  style="overflow:visible;fill:#FFFFFF;"/>
		<clipPath id="SVGID_64_">
			<use xlink:href="#SVGID_9_"  style="overflow:visible;"/>
		</clipPath>
		<rect x="278.3" y="133.5" class="st28" width="15.8" height="3.7"/>
	</g>
	<g>
		<defs>
			<path id="SVGID_8_" d="M286.1,133.5v1.2c0,0,0.1,0.2-2.4,0.5c-2,0.3-6,0.6-12.5,1.1c-3.6,0.3-6.6,0.5-9.1,0.7
				c1.1,0,2.3,0.1,3.5,0.1c1.5,0,3.1,0.1,4.7,0.1l15.9-1.7c0,0,4-0.3,4-1.1v-0.9H286.1z"/>
		</defs>
		<use xlink:href="#SVGID_8_"  style="overflow:visible;fill:#FFFFFF;"/>
		<clipPath id="SVGID_65_">
			<use xlink:href="#SVGID_8_"  style="overflow:visible;"/>
		</clipPath>
		<rect x="262.1" y="133.5" class="st29" width="28.2" height="3.7"/>
	</g>
	<g>
		<defs>
			<path id="SVGID_7_" d="M300.7,133.5v0.8c0,0.7,3.9,1.1,3.9,1.1l17.1,1.9c3.2,0,6,0,8.4,0c-3.1-0.3-7.3-0.6-12.8-1
				c-6.4-0.5-10.2-0.8-12.2-1.1c-2.5-0.3-2.4-0.5-2.4-0.5v-1.1H300.7z"/>
		</defs>
		<use xlink:href="#SVGID_7_"  style="overflow:visible;fill:#FFFFFF;"/>
		<clipPath id="SVGID_66_">
			<use xlink:href="#SVGID_7_"  style="overflow:visible;"/>
		</clipPath>
		<rect x="300.7" y="133.5" class="st30" width="29.5" height="3.7"/>
	</g>
	<path class="st0" d="M250.6,137c0,0,5.2,0.2,15,0.5c9.8,0.3,23.6-0.2,33.7-0.2c10,0,10.5,0.2,21.9,0.3c11.4,0.1,18.1-0.5,18.1-0.5
		s-6.7,0.3-18.1,0.3c-11.4-0.1-11.9-0.3-21.9-0.3c-10,0-23.8,0.5-33.7,0.2C255.8,137,250.6,137,250.6,137"/>
	<path class="st0" d="M315.7,137.6c0,0-11.3-0.2-15.6-0.2c-4.3,0.1-16.1,0.2-16.1,0.2s15.4-0.1,19,0
		C306.5,137.8,315.7,137.6,315.7,137.6"/>
	<path class="st0" d="M300.2,137.7c0,0-7.1-0.1-19,0c-11.9,0.1-16.7-0.1-16.7-0.1s7.9,0.4,17,0.2
		C290.6,137.7,295.6,137.8,300.2,137.7"/>
	<g>
		<defs>
			<path id="SVGID_6_" d="M244.6,133.5v3.1c0,0,1.1,0.6-12.8,2.6c-3.5,0.5-6.5,1-9.2,1.4c5.9-0.1,9.5-0.2,16.5-0.3
				c4.4-1.3,9-2.7,9.5-3c1-0.6,1-1.2,1-1.2v-2.6H244.6z"/>
		</defs>
		<use xlink:href="#SVGID_6_"  style="overflow:visible;fill:#FFFFFF;"/>
		<clipPath id="SVGID_67_">
			<use xlink:href="#SVGID_6_"  style="overflow:visible;"/>
		</clipPath>
		<rect x="222.6" y="133.5" class="st31" width="27.1" height="7.1"/>
	</g>
	<g>
		<defs>
			<path id="SVGID_5_" d="M236.6,133.5v2.9c0,0,1,0.7-10,1.2l-44.7,2.7c0,0-0.1,0-0.3,0c0.9,0,3.2,0.1,6.8,0.2
				c13.9-1,39.6-2.7,43.7-3.1c5.7-0.5,6.3-0.8,6.3-1.6v-2.4H236.6z"/>
		</defs>
		<use xlink:href="#SVGID_5_"  style="overflow:visible;fill:#FFFFFF;"/>
		<clipPath id="SVGID_68_">
			<use xlink:href="#SVGID_5_"  style="overflow:visible;"/>
		</clipPath>
		<rect x="181.6" y="133.5" class="st32" width="56.7" height="7.1"/>
	</g>
	<g>
		<defs>
			<path id="SVGID_4_" d="M267.4,133.5c0,0.2-0.1,2.1-0.1,2.6c0,0.8-0.4,1.1,5.4,1.6c3.5,0.3,22.5,1.6,36.9,2.6
				c6.4-0.1,10.3-0.2,11.7-0.2l-41.9-2.6c-11-0.6-10-1.2-10-1.2v-2.9H267.4z"/>
		</defs>
		<use xlink:href="#SVGID_4_"  style="overflow:visible;fill:#FFFFFF;"/>
		<clipPath id="SVGID_69_">
			<use xlink:href="#SVGID_4_"  style="overflow:visible;"/>
		</clipPath>
		<rect x="266.9" y="133.5" class="st33" width="54.4" height="6.9"/>
	</g>
	<g>
		<defs>
			<path id="SVGID_3_" d="M252.9,133.5v3.6c0,0,0.1,1.7,0.4,3.3c7.8,0.1,16.4,0.3,24.6,0.4c-2.4-0.4-5.1-0.8-8.2-1.2
				c-14.1-2.2-13.1-2.7-13.1-2.7v-3.3H252.9z"/>
		</defs>
		<use xlink:href="#SVGID_3_"  style="overflow:visible;fill:#FFFFFF;"/>
		<clipPath id="SVGID_70_">
			<use xlink:href="#SVGID_3_"  style="overflow:visible;"/>
		</clipPath>
		<rect x="252.9" y="133.5" class="st34" width="25" height="7.3"/>
	</g>
	<g>
		<defs>
			<path id="SVGID_2_" d="M258.9,133.5v2.8c0,1.2,6.4,1.7,6.4,1.7l25.3,2.7c2.6,0,5.1-0.1,7.5-0.1c2-0.1,3.8-0.1,5.6-0.2
				c-4-0.3-8.8-0.7-14.5-1.2c-10.3-0.8-16.5-1.3-19.7-1.7c-4.1-0.5-3.9-0.8-3.9-0.8v-3.4H258.9z"/>
		</defs>
		<use xlink:href="#SVGID_2_"  style="overflow:visible;fill:#FFFFFF;"/>
		<clipPath id="SVGID_71_">
			<use xlink:href="#SVGID_2_"  style="overflow:visible;"/>
		</clipPath>
		<rect x="258.9" y="133.5" class="st35" width="44.7" height="7.3"/>
	</g>
	<g>
		<defs>
			<path id="SVGID_1_" d="M239.2,133.5v3.2c0,0,0.2,0.3-3.8,0.7c-3.2,0.4-9.2,0.9-19.3,1.7c-8.8,0.7-15.5,1.2-20.3,1.7
				c3.8,0,8.2,0.1,13.3,0l27.1-3c0,0,6.3-0.5,6.3-1.7v-2.6H239.2z"/>
		</defs>
		<use xlink:href="#SVGID_1_"  style="overflow:visible;fill:#FFFFFF;"/>
		<clipPath id="SVGID_72_">
			<use xlink:href="#SVGID_1_"  style="overflow:visible;"/>
		</clipPath>
		<rect x="195.7" y="133.5" class="st36" width="46.7" height="7.3"/>
	</g>
</g>
</svg>
