<?xml version="1.0" encoding="utf-8"?>
<!-- Generator: Adobe Illustrator 24.0.1, SVG Export Plug-In . SVG Version: 6.00 Build 0)  -->
<svg version="1.1" id="Layer_1" xmlns="http://www.w3.org/2000/svg" xmlns:xlink="http://www.w3.org/1999/xlink" x="0px" y="0px"
	 viewBox="0 0 88 86" style="enable-background:new 0 0 88 86;" xml:space="preserve">
<style type="text/css">
	.st0{fill:#FFFFFF;}
</style>
<g>
	<path class="st0" d="M32.9,7.2c-1-0.6-2.3-0.7-3.4-0.2l18.1,18.1l5.9-5.9L32.9,7.2z M27.9,8.7c-0.2,0.5-0.4,1-0.4,1.6v33.2
		c0,0.6,0.1,1.1,0.4,1.6L46,26.9L27.9,8.7z M47.7,28.5L29.6,46.7c0.5,0.2,1,0.3,1.5,0.3c0.6,0,1.3-0.2,1.8-0.5l20.7-12L47.7,28.5z
		 M61.5,23.8C61.4,23.8,61.4,23.8,61.5,23.8l-5.8-3.4l-6.4,6.4l6.4,6.4c0,0,5.7-3.3,5.8-3.4c1.1-0.6,1.7-1.8,1.7-3
		S62.5,24.5,61.5,23.8z"/>
</g>
<g>
	<path class="st0" d="M10.4,62.4h2.3v1.3c-0.3,0.2-0.7,0.4-1.1,0.6c-0.4,0.2-0.9,0.3-1.3,0.3c-0.9,0-1.5-0.3-2.1-0.9
		c-0.5-0.6-0.8-1.5-0.8-2.7c0-1.1,0.3-1.9,0.8-2.5s1.2-0.8,2.1-0.8c0.6,0,1.1,0.1,1.5,0.4c0.4,0.3,0.7,0.7,0.8,1.2l2-0.4
		c-0.2-0.9-0.7-1.6-1.4-2.2c-0.7-0.5-1.7-0.8-2.9-0.8c-1,0-1.8,0.2-2.4,0.5c-0.8,0.4-1.5,1.1-1.9,1.9S5.4,60,5.4,61.1
		c0,1,0.2,1.9,0.6,2.7c0.4,0.8,1,1.4,1.8,1.9c0.8,0.4,1.7,0.7,2.7,0.7c0.8,0,1.6-0.2,2.4-0.5c0.8-0.3,1.4-0.7,1.8-1.1v-4h-4.4V62.4z
		"/>
	<path class="st0" d="M19.7,58.7c-0.7,0-1.4,0.2-1.9,0.5s-1,0.8-1.3,1.4S16,61.8,16,62.4c0,0.8,0.2,1.5,0.5,2.1
		c0.3,0.6,0.8,1,1.4,1.3s1.2,0.5,1.9,0.5c1.1,0,2-0.4,2.7-1.1c0.7-0.7,1.1-1.6,1.1-2.7c0-1.1-0.4-2-1.1-2.7
		C21.7,59.1,20.8,58.7,19.7,58.7z M21,64.2c-0.3,0.4-0.8,0.6-1.3,0.6s-0.9-0.2-1.3-0.6S18,63.2,18,62.5s0.2-1.3,0.5-1.7
		s0.8-0.6,1.3-0.6s0.9,0.2,1.3,0.6s0.5,0.9,0.5,1.6C21.5,63.2,21.3,63.8,21,64.2z"/>
	<path class="st0" d="M28.1,58.7c-0.7,0-1.4,0.2-1.9,0.5s-1,0.8-1.3,1.4s-0.5,1.2-0.5,1.9c0,0.8,0.2,1.5,0.5,2.1
		c0.3,0.6,0.8,1,1.4,1.3s1.2,0.5,1.9,0.5c1.1,0,2-0.4,2.7-1.1c0.7-0.7,1.1-1.6,1.1-2.7c0-1.1-0.4-2-1.1-2.7
		C30.1,59.1,29.2,58.7,28.1,58.7z M29.4,64.2c-0.3,0.4-0.8,0.6-1.3,0.6s-0.9-0.2-1.3-0.6s-0.5-0.9-0.5-1.7s0.2-1.3,0.5-1.7
		s0.8-0.6,1.3-0.6s0.9,0.2,1.3,0.6s0.5,0.9,0.5,1.6C29.9,63.2,29.8,63.8,29.4,64.2z"/>
	<path class="st0" d="M38.1,59.9c-0.6-0.8-1.3-1.2-2.2-1.2c-0.9,0-1.6,0.3-2.2,1s-0.9,1.6-0.9,2.8c0,1,0.2,1.8,0.7,2.4
		c0.6,0.8,1.3,1.2,2.3,1.2c0.9,0,1.6-0.4,2.2-1.2V66c0,0.4,0,0.7-0.1,0.9c-0.1,0.2-0.2,0.4-0.4,0.5c-0.3,0.2-0.6,0.2-1.1,0.2
		c-0.4,0-0.7-0.1-0.9-0.2c-0.1-0.1-0.2-0.3-0.3-0.5l-2.2-0.3c0,0.1,0,0.2,0,0.2c0,0.6,0.3,1.2,0.8,1.6c0.5,0.4,1.4,0.6,2.6,0.6
		c0.7,0,1.2-0.1,1.6-0.2s0.8-0.3,1-0.6s0.5-0.6,0.6-1s0.2-1.1,0.2-1.9v-6.5h-1.8V59.9z M37.5,64c-0.3,0.4-0.7,0.5-1.2,0.5
		c-0.4,0-0.8-0.2-1.1-0.5c-0.3-0.4-0.4-0.9-0.4-1.7c0-0.7,0.1-1.3,0.4-1.6c0.3-0.4,0.7-0.5,1.1-0.5c0.5,0,0.9,0.2,1.2,0.5
		s0.5,0.9,0.5,1.7C38,63.1,37.9,63.7,37.5,64z"/>
	<rect x="41.7" y="56.1" class="st0" width="1.9" height="10"/>
	<path class="st0" d="M50.7,59.8c-0.6-0.7-1.5-1.1-2.6-1.1c-1,0-1.8,0.3-2.4,1c-0.6,0.7-0.9,1.6-0.9,2.8c0,1,0.2,1.8,0.7,2.5
		c0.6,0.8,1.5,1.2,2.8,1.2c0.8,0,1.5-0.2,2-0.6c0.5-0.4,0.9-0.9,1.2-1.6l-1.9-0.3c-0.1,0.4-0.3,0.6-0.5,0.8s-0.5,0.2-0.8,0.2
		c-0.4,0-0.8-0.2-1.1-0.5c-0.3-0.3-0.5-0.8-0.5-1.3h4.8C51.7,61.6,51.4,60.5,50.7,59.8z M46.9,61.9c0-0.5,0.1-0.9,0.4-1.2
		s0.6-0.5,1-0.5c0.4,0,0.7,0.1,1,0.4c0.3,0.3,0.4,0.7,0.4,1.3H46.9z"/>
	<path class="st0" d="M62.5,56.3c-0.4-0.1-1.2-0.2-2.4-0.2h-3.2v10h2v-3.8h1.3c0.9,0,1.6,0,2.1-0.1c0.4-0.1,0.7-0.2,1-0.5
		c0.3-0.2,0.6-0.6,0.9-1c0.2-0.4,0.3-0.9,0.3-1.6c0-0.8-0.2-1.4-0.6-2C63.5,56.7,63.1,56.4,62.5,56.3z M62.2,60
		c-0.2,0.2-0.4,0.4-0.6,0.5c-0.3,0.1-0.8,0.2-1.6,0.2h-1.1v-2.8h1c0.7,0,1.2,0,1.5,0.1c0.3,0.1,0.6,0.2,0.8,0.4
		c0.2,0.2,0.3,0.5,0.3,0.9C62.4,59.5,62.3,59.8,62.2,60z"/>
	<rect x="66" y="56.1" class="st0" width="1.9" height="10"/>
	<path class="st0" d="M75.6,63.7l0-2.2c0-0.8-0.1-1.4-0.3-1.7c-0.2-0.3-0.5-0.6-0.9-0.8c-0.4-0.2-1.1-0.3-1.9-0.3
		c-0.9,0-1.7,0.2-2.1,0.5s-0.8,0.9-1,1.6l1.7,0.3c0.1-0.3,0.3-0.6,0.5-0.7c0.2-0.1,0.5-0.2,0.8-0.2c0.5,0,0.9,0.1,1,0.2
		c0.2,0.2,0.3,0.4,0.3,0.8v0.2c-0.3,0.1-1,0.3-1.9,0.5c-0.7,0.1-1.2,0.3-1.5,0.4c-0.4,0.2-0.6,0.4-0.8,0.7c-0.2,0.3-0.3,0.7-0.3,1.1
		c0,0.6,0.2,1.1,0.6,1.5s1,0.6,1.8,0.6c0.4,0,0.8-0.1,1.2-0.2c0.4-0.2,0.7-0.4,1.1-0.7c0,0,0,0.1,0.1,0.2c0.1,0.3,0.1,0.4,0.2,0.6
		h1.9c-0.2-0.3-0.3-0.7-0.3-1C75.7,64.9,75.6,64.4,75.6,63.7z M73.8,63c0,0.5,0,0.8-0.1,0.9c-0.1,0.3-0.2,0.5-0.5,0.6
		c-0.3,0.2-0.6,0.3-1,0.3c-0.3,0-0.6-0.1-0.8-0.3c-0.2-0.2-0.3-0.4-0.3-0.7c0-0.3,0.1-0.5,0.4-0.7c0.2-0.1,0.5-0.2,1-0.3
		s0.9-0.2,1.2-0.3V63z"/>
	<path class="st0" d="M82,58.9L80.3,64l-1.7-5.2h-2l2.8,7.3c-0.1,0.4-0.3,0.7-0.5,1c-0.2,0.3-0.5,0.4-1,0.4c-0.2,0-0.5,0-0.8-0.1
		l0.2,1.5c0.4,0.1,0.7,0.1,1.1,0.1c0.4,0,0.7,0,1-0.1c0.3-0.1,0.5-0.2,0.7-0.3c0.2-0.1,0.4-0.3,0.5-0.5c0.2-0.2,0.3-0.5,0.5-1
		l0.5-1.3l2.6-7H82z"/>
</g>
<g>
	<path class="st0" d="M25.3,74c-0.3-0.3-0.7-0.5-1.2-0.6c-0.3-0.1-0.8-0.1-1.4-0.1H20v7.9h2.8c0.5,0,0.9,0,1.3-0.1
		c0.4-0.1,0.7-0.2,0.9-0.4c0.3-0.2,0.5-0.4,0.7-0.7s0.4-0.7,0.5-1.1c0.1-0.5,0.2-1,0.2-1.6c0-0.7-0.1-1.3-0.3-1.9
		C26,74.8,25.7,74.3,25.3,74z M25.2,78.7c-0.1,0.4-0.3,0.7-0.6,1c-0.2,0.2-0.4,0.3-0.7,0.4c-0.3,0.1-0.7,0.1-1.2,0.1H21v-6h1.7
		c0.6,0,1.1,0.1,1.3,0.2c0.4,0.2,0.7,0.4,1,0.9c0.3,0.4,0.4,1.1,0.4,1.9C25.4,77.8,25.4,78.3,25.2,78.7z"/>
	<path class="st0" d="M30,75.3c-0.7,0-1.3,0.2-1.8,0.6c-0.6,0.5-0.9,1.3-0.9,2.3c0,1,0.2,1.7,0.7,2.2c0.5,0.5,1.1,0.8,1.9,0.8
		c0.5,0,1-0.1,1.4-0.3c0.4-0.2,0.7-0.6,1-1c0.2-0.4,0.3-1,0.3-1.7c0-0.9-0.2-1.6-0.7-2.1S30.8,75.3,30,75.3z M31.2,80
		c-0.3,0.4-0.7,0.5-1.2,0.5c-0.5,0-0.9-0.2-1.2-0.5s-0.5-0.9-0.5-1.6s0.2-1.3,0.5-1.6s0.7-0.5,1.2-0.5c0.5,0,0.9,0.2,1.2,0.5
		c0.3,0.4,0.5,0.9,0.5,1.6C31.7,79,31.5,79.6,31.2,80z"/>
	<path class="st0" d="M38.9,78.8l-0.3,1.1l-0.3-1.1l-0.9-3.3h-1l-0.9,3.3c-0.2,0.7-0.3,1.1-0.3,1.2l-0.3-1.2L34,75.5h-1l1.7,5.7h1
		l1.2-4.4l0.2,1l0.9,3.4h1l1.8-5.7h-0.9L38.9,78.8z"/>
	<path class="st0" d="M45.8,76c-0.1-0.2-0.4-0.4-0.6-0.5c-0.3-0.1-0.6-0.2-0.9-0.2c-0.8,0-1.4,0.3-1.8,0.9v-0.8h-0.9v5.7h1v-3.1
		c0-0.7,0.1-1.2,0.4-1.5c0.3-0.3,0.7-0.4,1.1-0.4c0.3,0,0.5,0.1,0.7,0.2c0.2,0.1,0.3,0.3,0.4,0.5s0.1,0.5,0.1,0.9v3.5h1v-3.5
		c0-0.4,0-0.8-0.1-0.9C46.1,76.5,46,76.2,45.8,76z"/>
	<rect x="47.5" y="73.3" class="st0" width="1" height="7.9"/>
	<path class="st0" d="M52.2,75.3c-0.7,0-1.3,0.2-1.8,0.6c-0.6,0.5-0.9,1.3-0.9,2.3c0,1,0.2,1.7,0.7,2.2c0.5,0.5,1.1,0.8,1.9,0.8
		c0.5,0,1-0.1,1.4-0.3c0.4-0.2,0.7-0.6,1-1c0.2-0.4,0.3-1,0.3-1.7c0-0.9-0.2-1.6-0.7-2.1C53.6,75.6,53,75.3,52.2,75.3z M53.4,80
		c-0.3,0.4-0.7,0.5-1.2,0.5c-0.5,0-0.9-0.2-1.2-0.5c-0.3-0.4-0.5-0.9-0.5-1.6s0.2-1.3,0.5-1.6c0.3-0.4,0.7-0.5,1.2-0.5
		c0.5,0,0.9,0.2,1.2,0.5s0.5,0.9,0.5,1.6C53.9,79,53.7,79.6,53.4,80z"/>
	<path class="st0" d="M60.5,78.8v-1.3c0-0.4,0-0.7,0-0.9c-0.1-0.3-0.2-0.5-0.3-0.7c-0.1-0.2-0.4-0.3-0.7-0.4
		c-0.3-0.1-0.7-0.2-1.2-0.2c-0.5,0-0.9,0.1-1.3,0.2c-0.4,0.1-0.7,0.3-0.9,0.6c-0.2,0.2-0.3,0.6-0.4,1l0.9,0.1
		c0.1-0.4,0.3-0.7,0.5-0.8c0.2-0.2,0.6-0.2,1-0.2c0.5,0,0.9,0.1,1.1,0.3c0.2,0.2,0.3,0.4,0.3,0.8c0,0,0,0.1,0,0.3
		c-0.4,0.1-0.9,0.2-1.7,0.3c-0.4,0-0.7,0.1-0.9,0.1c-0.3,0.1-0.5,0.2-0.7,0.3c-0.2,0.1-0.4,0.3-0.5,0.6c-0.1,0.2-0.2,0.5-0.2,0.8
		c0,0.5,0.2,0.9,0.5,1.2c0.3,0.3,0.8,0.5,1.4,0.5c0.4,0,0.7-0.1,1.1-0.2c0.3-0.1,0.7-0.3,1-0.6c0,0.3,0.1,0.5,0.2,0.7h1
		c-0.1-0.2-0.2-0.4-0.2-0.7C60.5,80.3,60.5,79.7,60.5,78.8z M59.5,78.7c0,0.4-0.1,0.7-0.2,1c-0.1,0.3-0.3,0.5-0.6,0.7
		s-0.6,0.2-1,0.2c-0.4,0-0.7-0.1-0.9-0.3c-0.2-0.2-0.3-0.4-0.3-0.6c0-0.2,0-0.3,0.1-0.5c0.1-0.1,0.2-0.2,0.4-0.3
		c0.2-0.1,0.4-0.1,0.8-0.2c0.7-0.1,1.2-0.2,1.6-0.4V78.7z"/>
	<path class="st0" d="M65.5,73.3v2.8c-0.2-0.2-0.4-0.4-0.7-0.6c-0.3-0.1-0.6-0.2-0.9-0.2c-0.5,0-0.9,0.1-1.3,0.4
		c-0.4,0.2-0.7,0.6-0.9,1.1c-0.2,0.5-0.3,1-0.3,1.5c0,0.6,0.1,1.1,0.3,1.5c0.2,0.4,0.5,0.8,0.9,1c0.4,0.3,0.8,0.4,1.3,0.4
		c0.7,0,1.2-0.3,1.6-0.8v0.7h0.9v-7.9H65.5z M65.2,80c-0.3,0.3-0.7,0.5-1.1,0.5c-0.4,0-0.8-0.2-1.1-0.5c-0.3-0.4-0.5-0.9-0.5-1.6
		c0-0.8,0.1-1.3,0.4-1.7c0.3-0.4,0.6-0.5,1.1-0.5c0.4,0,0.8,0.2,1.1,0.5s0.5,0.9,0.5,1.7C65.6,79.1,65.5,79.6,65.2,80z"/>
</g>
<text transform="matrix(1 0 0 1 91.8735 10.8084)" class="st0" style="font-family:'Arial-BoldMT'; font-size:14px;">Google Play</text>
</svg>
